<?xml version="1.0" encoding="utf-8"?>
<!-- Generator: Adobe Illustrator 27.3.1, SVG Export Plug-In . SVG Version: 6.00 Build 0)  -->
<svg version="1.1" id="Layer_1" xmlns="http://www.w3.org/2000/svg" xmlns:xlink="http://www.w3.org/1999/xlink" x="0px" y="0px"
	 viewBox="0 0 1920 1080" style="enable-background:new 0 0 1920 1080;" xml:space="preserve">
<style type="text/css">
	.st0{fill:#552F14;}
	.st1{fill:#844C37;}
	.st2{fill:#552D0E;}
	.st3{fill:#844B36;}
</style>
<g>
	<path class="st0" d="M727.2,695.72c0,24.81-16.86,43.08-37.93,43.08c-21.48,0-38.34-18.27-38.34-41.68
		c0-13.59,5.47-25.29,13.9-32.77c-2.11-0.94-8.01-3.28-16.01-3.28c-29.91,0-55.22,35.57-55.22,87.55c0,51.5,24.87,87.09,63.64,87.09
		c40.45,0,65.32-36.99,69.53-53.38h8.84c-11.38,51.5-39.19,101.6-100.72,101.6c-57.32,0-111.26-44.48-111.26-122.2
		c0-73.05,47.2-130.15,117.58-130.15C690.53,631.57,727.2,660.12,727.2,695.72z"/>
	<path class="st0" d="M955.17,712.1c0,52.9-40.88,92.69-96.51,92.69c-11.38,0-23.18-1.88-35.41-5.14
		c10.54,22.95,29.08,36.05,53.09,36.05c40.45,0,65.32-36.99,69.53-53.38h8.84c-13.49,60.86-49.31,101.6-105.35,101.6
		c-61.54,0-106.61-48.22-106.61-122.2c0-77.73,49.31-130.15,122.64-130.15C927.78,631.57,955.17,669.49,955.17,712.1z
		 M863.31,661.06c-25.28,0-50.57,35.57-50.57,87.55c0,13.1,1.69,25.29,4.21,36.05C905.45,756.58,903.76,661.06,863.31,661.06z"/>
	<path class="st0" d="M1122.48,723.35c0-34.17-11.8-54.78-32.87-54.78c-19.81,0-34.13,20.13-37.08,51.04v116.58
		c0,11.24,5.91,22.95,13.49,29.97l4.21,3.28v9.82H965.29v-9.82l3.8-3.28c8.43-7.02,13.9-18.73,13.9-29.97V694.34
		c0-11.24-5.47-23.41-13.9-29.97l-3.8-3.28v-9.82l69.96-14.51h17.27v36.99c15.16-26.21,40.45-42.14,70.38-42.14
		c45.09,0,69.53,35.11,69.53,87.09v121.26c0,12.16,3.37,16.85,11.8,16.85c0,0,6.32,0,10.12-6.56c0,11.7-15.6,33.71-47.2,33.71
		c-27.81,0-44.66-16.85-44.66-53.84V723.35H1122.48z"/>
	<path class="st0" d="M1375.73,723.35c0-34.17-11.8-54.78-32.87-54.78c-19.81,0-34.14,20.13-37.08,51.04v116.58
		c0,11.24,5.91,22.95,13.49,29.97l4.21,3.28v9.82h-104.94v-9.82l3.8-3.28c8.43-7.02,13.9-18.73,13.9-29.97V694.34
		c0-11.24-5.47-23.41-13.9-29.97l-3.8-3.28v-9.82l69.96-14.51h17.27v36.99c15.16-26.21,40.45-42.14,70.38-42.14
		c45.09,0,69.53,35.11,69.53,87.09v121.26c0,12.16,3.37,16.85,11.8,16.85c0,0,6.32,0,10.12-6.56c0,11.7-15.6,33.71-47.2,33.71
		c-27.82,0-44.68-16.85-44.68-53.84L1375.73,723.35L1375.73,723.35z"/>
	<path class="st0" d="M1576.75,869.42v9.82h-104.94v-9.82l3.8-3.28c8.43-7.02,13.9-18.73,13.9-29.97V694.32
		c0-11.24-5.47-23.41-13.9-29.97l-3.8-3.28v-9.82l69.96-14.51h17.27v199.45c0,11.24,5.91,22.95,13.49,29.97L1576.75,869.42z
		 M1524.07,534.66c22.33,0,40.45,20.61,40.45,44.94c0,24.33-18.12,44.48-40.45,44.48c-21.92,0-40.03-20.13-40.03-44.48
		C1484.04,555.24,1502.16,534.66,1524.07,534.66z"/>
	<path class="st0" d="M1782.83,722.87v117.04c0,12.16,3.37,16.85,11.8,16.85c0,0,6.32,0,9.69-6.56c0,11.7-15.16,33.71-46.79,33.71
		c-22.76,0-38.77-11.7-43.4-35.57c-13.9,23.41-36.67,35.57-61.95,35.57c-38.77,0-68.69-28.09-68.69-70.23
		c0-86.15,123.47-76.79,126.42-115.64c-8.43-30.89-30.76-41.2-45.51-41.2c-5.91,0-10.12,1.4-12.23,3.28
		c7.17,6.56,12.23,16.85,12.23,28.55c0,19.67-14.75,36.05-33.3,36.05c-18.55,0-33.3-16.39-33.3-37.93
		c0-32.31,31.61-55.24,84.71-55.24C1729.72,631.57,1782.83,649.84,1782.83,722.87z M1712.86,732.71
		c-21.07,16.85-59.43,24.81-59.43,65.08c0,23.41,13.06,37.93,26.55,37.93c15.16,0,30.34-18.27,32.87-45.88v-57.14H1712.86z"/>
	<path class="st0" d="M1912.18,869.42v9.82h-104.94v-9.82l3.8-3.28c8.43-7.02,13.9-18.73,13.9-29.97V597.4
		c0-11.24-5.47-23.41-13.9-29.97l-3.8-3.74v-9.36l69.96-14.51h17.27v296.37c0,11.24,5.91,22.95,13.49,29.97L1912.18,869.42z"/>
</g>
<g>
	<path class="st0" d="M677.26,159.9c91.04,0,152.55,71.63,152.55,176.5c0,90.35-44.68,153.1-114.63,169.02
		c26.13,7.96,52.68,21.07,77.96,21.07c5.47,0,10.54-0.46,15.6-1.88c10.95-3.28,14.75-7.48,22.33-21.07l7.17,4.68
		c2.95,26.69-2.52,71.63-42.57,81.47c-5.06,1.4-10.54,1.88-15.6,1.88c-36.67,0-72.9-28.55-114.63-28.55
		c-6.74,0-13.49,0.46-20.66,2.34c-5.91,1.88-16.01,5.14-21.48,13.1l-7.58-5.14c2.52-10.76,4.63-49.16,32.45-66.94
		c-74.18-13.1-123.9-77.25-123.9-171.36C524.29,229.65,586.66,159.9,677.26,159.9z M676.84,480.14c50.15,0,83.44-58.52,83.44-147.01
		c0-87.55-32.45-144.19-81.33-144.19c-50.15,0-84.71,58.52-84.71,147.47C594.24,423.48,627.12,480.14,676.84,480.14z"/>
	<path class="st0" d="M1077.61,482c0,0,6.32,0,10.12-6.56c0,11.7-15.6,33.71-47.2,33.71c-24.87,0-41.29-13.58-44.25-42.14
		c-14.75,26.21-40.03,42.14-70.79,42.14c-44.66,0-69.12-34.65-69.12-86.61v-103c0-11.24-5.47-23.41-13.9-29.97l-3.8-3.28v-9.82
		l69.96-14.51h17.27v155.44c0,34.65,11.8,55.24,32.87,55.24c19.81,0,34.13-19.19,37.08-49.64V315.78
		c-1.26-10.3-5.91-20.61-13.49-26.21l-3.8-3.28v-9.82l69.53-14.51h17.7v203.65C1065.8,477.32,1069.19,482,1077.61,482z"/>
	<path class="st0" d="M1197.7,494.64v9.82h-104.94v-9.82l3.8-3.28c8.43-7.02,13.9-18.73,13.9-29.97V319.54
		c0-11.24-5.47-23.41-13.9-29.97l-3.8-3.28v-9.82l69.96-14.51H1180v199.45c0,11.24,5.91,22.95,13.49,29.97L1197.7,494.64z
		 M1145.02,159.9c22.33,0,40.45,20.61,40.45,44.94s-18.12,44.48-40.45,44.48c-21.92,0-40.03-20.13-40.03-44.48
		S1123.11,159.9,1145.02,159.9z"/>
	<path class="st0" d="M1361.63,348.57c0-34.17-11.8-54.78-32.87-54.78c-19.81,0-34.14,20.13-37.08,51.04v116.58
		c0,11.24,5.91,22.95,13.49,29.97l4.21,3.28v9.82h-104.94v-9.82l3.8-3.28c8.43-7.02,13.9-18.73,13.9-29.97V319.56
		c0-11.24-5.47-23.41-13.9-29.97l-3.8-3.28v-9.82l69.95-14.51h17.27v36.97c15.16-26.21,40.45-42.14,70.38-42.14
		c45.09,0,69.53,35.11,69.53,87.09v121.26c0,12.16,3.37,16.85,11.8,16.85c0,0,6.32,0,10.12-6.56c0,11.7-15.6,33.71-47.2,33.71
		c-27.81,0-44.66-16.85-44.66-53.84V348.57z"/>
	<path class="st0" d="M1595.95,188.93v-9.36l69.53-14.51h17.7v300.11c0,12.16,3.37,16.85,11.8,16.85c0,0,6.32,0,10.12-6.56
		c0,11.7-15.6,33.71-47.2,33.71c-21.07,0-35.82-9.36-42.14-30.43c-13.06,19.19-32.02,30.43-60.26,30.43
		c-59,0-99.46-50.1-99.46-125.01c0-76.31,42.14-127.35,103.68-127.35c24.44,0,41.29,8.42,53.52,22.01v-56.2
		c0-11.24-5.06-23.41-13.49-29.97L1595.95,188.93z M1613.22,396.33v-26.21c-2.52-51.5-20.22-83.81-45.09-83.81
		c-26.98,0-42.14,38.85-42.14,95.51c0,60.4,17.27,98.32,42.99,98.32C1593.41,480.14,1610.7,447.36,1613.22,396.33z"/>
	<path class="st0" d="M1920,337.34c0,52.9-40.88,92.69-96.51,92.69c-11.38,0-23.18-1.88-35.41-5.14
		c10.54,22.95,29.08,36.05,53.11,36.05c40.45,0,65.32-36.99,69.53-53.38h8.84c-13.49,60.86-49.31,101.6-105.35,101.6
		c-61.54,0-106.61-48.22-106.61-122.2c0-77.73,49.31-130.15,122.64-130.15C1892.61,256.82,1920,294.73,1920,337.34z M1828.14,286.31
		c-25.28,0-50.57,35.57-50.57,87.55c0,13.1,1.69,25.29,4.21,36.05C1870.28,381.82,1868.6,286.31,1828.14,286.31z"/>
</g>
<path class="st1" d="M342.16,132.91c0.41,2.08-0.87,2.95-1.82,3.89c-16.01,15.78-29.29,33.77-41.9,52.24
	c-3.21,4.69-5.06,3.13-7.79,0.1c-15.19-16.77-29.29-34.4-42.56-52.71c-2.08-2.87-2.28-5.15-0.11-8.17
	c12.46-17.44,25.12-34.68,39.8-50.37c3.93-4.2,6.71-5.39,11.09-0.21c14.16,16.7,28.21,33.48,40.92,51.32
	C340.73,130.37,341.49,131.83,342.16,132.91z"/>
<path class="st2" d="M476.46,859.43c-3.38,4.24-8.81,11.12-18.06,20c-57.22,54.97-126.31,71.2-126.31,71.2
	c-23.46,5.51-66.7,12.16-117.87,0C132.9,931.31,59.98,871.24,37.42,804.7c-5.76-16.98-12.85-47.98-16.6-80.63
	c-2.55-22.15-3.07-40.81-3.04-54.08c-7.35,26.42-17.99,78.4-4.63,141.17c6.16,28.93,18.74,84.43,66.36,131.06
	c50.96,49.89,111.61,59.83,143.12,64.55c35.69,5.34,147.5,22.08,224.51-56.13c60.69-61.62,61.76-143.62,61.34-165.49
	C503.04,803.34,496.36,834.44,476.46,859.43z"/>
<g>
	<path d="M213.54,824.55c-2.45-7.98-3.31-11.57-2.53-10.77c0.02,0,0.02,0,0.02,0.02C211.85,817.34,212.66,820.93,213.54,824.55z"/>
</g>
<g>
	<path d="M173.72,866.63c-0.58-0.88-1.12-1.76-1.64-2.66c0.32,0.14,0.65,0.26,0.97,0.34C173.3,865.04,173.54,865.85,173.72,866.63z"
		/>
</g>
<g>
	<path class="st2" d="M500.54,684.28c-2.87-15.35-11.9-36.28-14.12-48.22c13.76,73.53-18.22,150.13-77.32,195.16
		c-36.32,27.66-81.46,42.2-127.05,46c-0.21-0.37-0.42-0.65-0.63-0.74c-18.36-8.78-36.23-19.81-50.7-34.26
		c-2.22-2.22-4.35-4.51-6.36-6.93c1.57-6.28,4.24-12.3,7.27-18.04c14.38-27.32,33.83-51.3,52.34-75.75
		c19.52-25.75,24.33-58.52,20.23-89.99c-1.09-8.42-4.33-17.02-6.67-25.16c-2.29-7.97-6.62-16.74-7.69-24.91
		c3.73,28.62,0.39,59.27-15.82,83.81c-5.63,8.52-12.57,16.11-18.8,24.19c-10.24,13.32-19.49,27.48-28.47,41.65
		c-11.81,18.64-21.67,37.04-16.46,59.54c0.23,1.04,0.49,2.11,0.72,3.15c0.02,0,0.02,0,0.02,0.02c0.81,3.54,1.62,7.14,2.5,10.74
		c0,0.02,0,0.02,0,0.02c4.38,18.36,9.67,36.94,19.63,52.71c-3.78-0.31-7.53-0.7-11.28-1.2c-14.57-9.33-28.29-20.02-40.51-32.3
		c-8.59-8.63-16.44-18.06-22.83-28.43c-0.1-0.16-0.21-0.34-0.31-0.51c0.02-0.7,0.07-1.39,0.11-2.08
		c0.93-14.08,6.44-26.95,12.31-39.59c7.43-16.02,15.49-31.55,25.86-45.91c14.28-19.79,32.62-36.6,43.34-58.83
		c13.71-28.43,15.21-59.98,10.88-90.82c-1.46-10.37-5.55-20.86-8.5-30.89c-1.43-4.95-2.64-10.12-4.51-14.91
		c-0.18-0.47-1.46-4.88-1.11-2.4c4.45,31.62,1.99,64.34-13.13,92.93c-13.47,25.47-36.05,44.8-51,69.42
		c-16.27,26.8-33.22,58.85-27.21,91.14c0.94,5.16,2.08,10.35,3.33,15.53c0,0.05,0.02,0.11,0.05,0.21c1.2,6.9,6.39,25.28,9,31.33
		c0,0.05,0.02,0.07,0.05,0.11c1.67,5.09,3.45,10.14,5.28,15.07c2.11,5.68,4.67,11.13,7.64,16.39c-11.13-7.32-21.27-16.37-30.4-25.99
		c-8.89-9.35-16.86-19.56-23.64-30.56c-2.97-4.82-5.68-9.8-8.1-14.89c-0.02-0.11-0.02-0.23-0.05-0.34
		c-3.38-33.2,4.86-66.76,21.71-95.43c11.81-20.12,28.86-36.18,41.69-55.68c24.01-36.51,38.34-78.39,42.51-121.84
		c0.7-7.27-4.67-18.24-6.67-25.19c-1.69-5.9-3.41-11.81-5.23-17.67c-0.55-1.78-2.61-5.53-2.45-7.22
		c-4.17,43.43-18.48,85.35-42.52,121.87c-14.52,22.04-33.84,39.98-46.07,63.6c-17.39,33.57-22.36,71.93-13.71,108.73
		c6.18,26.3,13.06,53.18,24.63,77.67C109.7,830,97.89,820.06,87.21,808.8c-11.94-12.59-22.36-26.67-30.79-41.86
		c-2.13-3.82-4.12-7.71-5.97-11.69c0.39,3.21,0.7,6.46,0.79,9.7c0.07,1.95-11.86-36.11-5.84-21.6c0.95,2.32,1.83,4.66,2.8,6.94
		c0.72,1.67,1.46,3.31,2.24,4.95c-1.27-10.61-3.59-21.21-3.54-32.06c0.16-39.8,11.67-78.9,28.85-114.52
		c6.3-13.06,13.38-25.75,21.04-38.04c8.06-12.92,17.57-24.68,26.77-36.72c3.57-4.63,7.09-9.33,10.45-14.12
		c27.85-39.84,40.79-89.67,43.87-137.7c0.49-7.5-4.63-18.01-6.67-25.19c-1.09-3.82-2.2-7.61-3.33-11.41
		c-0.63-2.08-1.25-4.17-1.9-6.25c-0.18-0.58-0.49-1.32-0.86-2.13c-0.58-1.39-1.27-2.97-1.51-4.17c-0.02-0.26-0.07-0.51-0.1-0.76
		c-2.99,46.07-15.02,93.76-40.56,132.68c-10.28,15.65-22.92,29.56-33.5,44.99c-8.29,12.06-15.72,24.79-22.52,37.74
		c-18.82,35.9-32.16,75.44-34.12,116.15c-1.2,24.84,2.71,48.66,9.23,72.55c7.09,25.83,13.82,52.32,26.3,76.22
		c33.89,64.96,97.88,102.79,167.04,113.11c0.39,0.07,0.76,0.11,1.15,0.16c52.83,7.69,108.6-0.67,156.25-25.21
		C471.14,860.24,516.82,771.39,500.54,684.28z M102.63,776.16c1.59,3.84,2.97,7.22,4.12,10.16
		C105.24,782.97,104.04,779.52,102.63,776.16z M108.71,791.58C115.66,810.75,110.48,804.93,108.71,791.58L108.71,791.58z
		 M172.08,863.97c0.32,0.14,0.65,0.26,0.97,0.34c0.26,0.72,0.49,1.53,0.67,2.32C173.14,865.75,172.62,864.88,172.08,863.97z"/>
	<path class="st2" d="M50.49,755.28c0.39,3.21,0.7,6.46,0.79,9.7c0.07,1.95-11.86-36.11-5.84-21.6c0.95,2.32,1.83,4.66,2.8,6.94
		C48.96,751.99,49.71,753.63,50.49,755.28z"/>
	<path class="st2" d="M173.72,866.63c-0.58-0.88-1.12-1.76-1.64-2.66c0.32,0.14,0.65,0.26,0.97,0.34
		C173.3,865.04,173.54,865.85,173.72,866.63z"/>
</g>
<g>
	<path class="st3" d="M173.05,864.32c0.26,0.72,0.49,1.53,0.67,2.32c-0.58-0.88-1.12-1.76-1.64-2.66
		C172.41,864.11,172.73,864.23,173.05,864.32z"/>
	<path class="st3" d="M236.85,926.55c-0.49-0.31-0.94-0.6-1.43-0.93c0.39,0.07,0.76,0.11,1.15,0.16
		C236.69,926.22,236.81,926.5,236.85,926.55z"/>
	<path class="st3" d="M450.93,855.71c0.11-0.11,0.39-0.42,0.83-0.88c-0.47,0.63-0.76,0.94-0.91,0.94
		C450.89,855.76,450.89,855.73,450.93,855.71z"/>
	<path class="st3" d="M507.28,707.26c-0.47,5.9-0.97,10.97-1.41,15.12c-1.23,11.67-2.85,21.9-4.63,30.91
		c-0.02,0.16-0.07,0.31-0.11,0.44c-4.54,22.41-10.35,37.04-14.47,46.67c-12.25,28.54-30.65,49.73-34.88,54.4
		c0.28-0.39,0.63-0.91,1.02-1.55c0.02,0,0.02-0.02,0.05-0.05c5.84-9.31,22.76-43.2,31.6-89.52c0,0,6.13-32.16,3.33-66.31
		c-2.69-32.58-15.56-90.15-107.32-191.57c-33.83-37.36-27.39-24.38-125.31-117.28c-10.09-9.59-19.37-18.56-27.92-27l-0.02-0.02
		c-67.16-66.32-89.36-99.92-115.76-140.74c-20.14-31.21-34.72-64.29-30.6-101.22c4.14-37.3,11.81-74.06,18.73-110.92
		c0.05-0.28,0.95-0.39,1.53-0.63c1.48,43.06,17.91,80.84,50.52,111.47c14.12,13.24,20.39,25.86,13.82,43.25
		c-3.1,8.24-0.39,14.91,5.55,21.95c27.34,32.37,56.35,63.29,86.72,93.21c46.42,45.67,97.18,87.35,142.19,134.32
		c35.56,37.11,78.31,93.81,98.46,176.92C510.36,638.62,509.34,681.08,507.28,707.26z"/>
</g>
</svg>
