<?xml version="1.0" encoding="utf-8"?>
<!-- Generator: Adobe Illustrator 27.3.1, SVG Export Plug-In . SVG Version: 6.00 Build 0)  -->
<svg version="1.1" id="Layer_1" xmlns="http://www.w3.org/2000/svg" xmlns:xlink="http://www.w3.org/1999/xlink" x="0px" y="0px"
	 viewBox="0 0 1080 1080" style="enable-background:new 0 0 1080 1080;" xml:space="preserve">
<style type="text/css">
	.st0{fill:#844C37;}
	.st1{fill:#552D0E;}
	.st2{fill:#844B36;}
</style>
<path class="st0" d="M649.17,144.68c0.43,2.18-0.91,3.09-1.91,4.08c-16.78,16.54-30.71,35.4-43.92,54.77
	c-3.36,4.92-5.3,3.28-8.17,0.11c-15.92-17.58-30.71-36.06-44.62-55.26c-2.18-3.01-2.39-5.4-0.12-8.57
	c13.06-18.28,26.33-36.36,41.72-52.8c4.12-4.4,7.03-5.65,11.63-0.22c14.84,17.51,29.57,35.1,42.9,53.8
	C647.67,142.01,648.47,143.54,649.17,144.68z"/>
<path class="st1" d="M789.96,906.31c-3.54,4.45-9.24,11.66-18.93,20.97c-59.99,57.63-132.41,74.64-132.41,74.64
	c-24.59,5.78-69.92,12.75-123.57,0c-85.26-20.26-161.7-83.23-185.35-152.99c-6.04-17.8-13.47-50.3-17.4-84.53
	c-2.67-23.22-3.22-42.78-3.19-56.69c-7.7,27.7-18.86,82.19-4.85,147.99c6.46,30.33,19.65,88.51,69.57,137.39
	c53.42,52.3,117,62.72,150.04,67.67c37.41,5.6,154.63,23.15,235.36-58.84c63.62-64.6,64.74-150.56,64.3-173.49
	C817.82,847.51,810.82,880.11,789.96,906.31z"/>
<g>
	<path d="M514.33,869.74c-2.57-8.37-3.47-12.13-2.65-11.29c0.02,0,0.02,0,0.02,0.02C512.56,862.19,513.41,865.95,514.33,869.74z"/>
</g>
<g>
	<path d="M472.59,913.86c-0.61-0.92-1.17-1.84-1.72-2.79c0.34,0.15,0.68,0.27,1.02,0.36C472.15,912.19,472.4,913.04,472.59,913.86z"
		/>
</g>
<g>
	<path class="st1" d="M815.2,722.69c-3.01-16.09-12.47-38.03-14.8-50.55c14.42,77.08-19.1,157.39-81.06,204.59
		c-38.08,29-85.4,44.24-133.19,48.22c-0.22-0.39-0.44-0.68-0.66-0.78c-19.25-9.2-37.98-20.77-53.15-35.92
		c-2.33-2.33-4.56-4.73-6.67-7.26c1.65-6.58,4.44-12.89,7.62-18.91c15.07-28.64,35.46-53.78,54.87-79.41
		c20.46-26.99,25.51-61.35,21.21-94.34c-1.14-8.83-4.54-17.84-6.99-26.38c-2.4-8.35-6.94-17.55-8.06-26.11
		c3.91,30,0.41,62.13-16.58,87.86c-5.9,8.93-13.18,16.89-19.71,25.36c-10.73,13.96-20.43,28.81-29.85,43.66
		c-12.38,19.54-22.72,38.83-17.26,62.42c0.24,1.09,0.51,2.21,0.75,3.3c0.02,0,0.02,0,0.02,0.02c0.85,3.71,1.7,7.48,2.62,11.26
		c0,0.02,0,0.02,0,0.02c4.59,19.25,10.14,38.73,20.58,55.26c-3.96-0.32-7.89-0.73-11.82-1.26c-15.27-9.78-29.66-20.99-42.47-33.86
		c-9-9.05-17.23-18.93-23.93-29.8c-0.1-0.17-0.22-0.36-0.32-0.53c0.02-0.73,0.07-1.46,0.12-2.18c0.97-14.76,6.75-28.25,12.91-41.5
		c7.79-16.79,16.24-33.08,27.11-48.13c14.97-20.75,34.2-38.37,45.43-61.67c14.37-29.8,15.95-62.88,11.41-95.21
		c-1.53-10.87-5.82-21.87-8.91-32.38c-1.5-5.19-2.77-10.61-4.73-15.63c-0.19-0.49-1.53-5.12-1.16-2.52
		c4.66,33.15,2.09,67.45-13.76,97.42c-14.12,26.7-37.79,46.96-53.47,72.78c-17.06,28.1-34.83,61.69-28.52,95.55
		c0.99,5.41,2.18,10.85,3.49,16.28c0,0.05,0.02,0.12,0.05,0.22c1.26,7.23,6.7,26.5,9.44,32.84c0,0.05,0.02,0.07,0.05,0.12
		c1.75,5.34,3.62,10.63,5.53,15.8c2.21,5.95,4.9,11.67,8.01,17.18c-11.67-7.67-22.3-17.16-31.87-27.25
		c-9.32-9.8-17.67-20.51-24.78-32.04c-3.11-5.05-5.95-10.27-8.49-15.61c-0.02-0.12-0.02-0.24-0.05-0.36
		c-3.54-34.8,5.1-69.99,22.76-100.04c12.38-21.09,30.26-37.93,43.71-58.37c25.17-38.27,40.19-82.18,44.56-127.73
		c0.73-7.62-4.9-19.12-6.99-26.41c-1.77-6.19-3.57-12.38-5.48-18.52c-0.58-1.87-2.74-5.8-2.57-7.57
		c-4.37,45.53-19.37,89.48-44.58,127.76c-15.22,23.1-35.48,41.91-48.3,66.67c-18.23,35.19-23.44,75.41-14.37,113.99
		c6.48,27.57,13.69,55.75,25.82,81.42c-13.25-9-25.63-19.42-36.82-31.23c-12.52-13.2-23.44-27.96-32.28-43.88
		c-2.23-4-4.32-8.08-6.26-12.26c0.41,3.37,0.73,6.77,0.83,10.17c0.07,2.04-12.43-37.86-6.12-22.64c1,2.43,1.92,4.88,2.94,7.28
		c0.75,1.75,1.53,3.47,2.35,5.19c-1.33-11.12-3.76-22.23-3.71-33.61c0.17-41.72,12.23-82.71,30.24-120.06
		c6.6-13.69,14.03-26.99,22.06-39.88c8.45-13.54,18.42-25.87,28.06-38.49c3.74-4.85,7.43-9.78,10.95-14.8
		c29.2-41.77,42.76-94,45.99-144.36c0.51-7.86-4.85-18.88-6.99-26.41c-1.14-4-2.31-7.98-3.49-11.96c-0.66-2.18-1.31-4.37-1.99-6.55
		c-0.19-0.61-0.51-1.38-0.9-2.23c-0.61-1.46-1.33-3.11-1.58-4.37c-0.02-0.27-0.07-0.53-0.1-0.8c-3.13,48.3-15.75,98.29-42.52,139.09
		c-10.78,16.41-24.03,30.99-35.12,47.16c-8.69,12.64-16.48,25.99-23.61,39.56c-19.73,37.64-33.71,79.09-35.77,121.76
		c-1.26,26.04,2.84,51.01,9.68,76.06c7.43,27.08,14.49,54.85,27.57,79.9c35.53,68.1,102.61,107.76,175.11,118.58
		c0.41,0.07,0.8,0.12,1.21,0.17c55.38,8.06,113.85-0.7,163.8-26.43C784.38,907.16,832.27,814.02,815.2,722.69z M398.06,819.02
		c1.67,4.03,3.11,7.57,4.32,10.65C400.8,826.15,399.54,822.54,398.06,819.02z M404.44,835.18
		C411.72,855.28,406.29,849.18,404.44,835.18L404.44,835.18z M470.87,911.07c0.34,0.15,0.68,0.27,1.02,0.36
		c0.27,0.75,0.51,1.6,0.7,2.43C471.98,912.94,471.43,912.02,470.87,911.07z"/>
	<path class="st1" d="M343.4,797.13c0.41,3.37,0.73,6.77,0.83,10.17c0.07,2.04-12.43-37.86-6.12-22.64c1,2.43,1.92,4.88,2.94,7.28
		C341.8,793.68,342.58,795.4,343.4,797.13z"/>
	<path class="st1" d="M472.59,913.86c-0.61-0.92-1.17-1.84-1.72-2.79c0.34,0.15,0.68,0.27,1.02,0.36
		C472.15,912.19,472.4,913.04,472.59,913.86z"/>
</g>
<g>
	<path class="st2" d="M471.89,911.44c0.27,0.75,0.51,1.6,0.7,2.43c-0.61-0.92-1.17-1.84-1.72-2.79
		C471.21,911.22,471.55,911.34,471.89,911.44z"/>
	<path class="st2" d="M538.77,976.67c-0.51-0.32-0.99-0.63-1.5-0.97c0.41,0.07,0.8,0.12,1.21,0.17
		C538.6,976.33,538.73,976.62,538.77,976.67z"/>
	<path class="st2" d="M763.2,902.41c0.12-0.12,0.41-0.44,0.87-0.92c-0.49,0.66-0.8,0.99-0.95,0.99
		C763.15,902.46,763.15,902.43,763.2,902.41z"/>
	<path class="st2" d="M822.27,746.79c-0.49,6.19-1.02,11.5-1.48,15.85c-1.29,12.23-2.99,22.96-4.85,32.4
		c-0.02,0.17-0.07,0.32-0.12,0.46c-4.76,23.49-10.85,38.83-15.17,48.93c-12.84,29.92-32.13,52.13-36.57,57.03
		c0.29-0.41,0.66-0.95,1.07-1.63c0.02,0,0.02-0.02,0.05-0.05c6.12-9.76,23.86-45.29,33.13-93.85c0,0,6.43-33.71,3.49-69.51
		c-2.82-34.15-16.31-94.51-112.51-200.83c-35.46-39.17-28.71-25.56-131.37-122.95c-10.58-10.05-20.31-19.46-29.27-28.3l-0.02-0.02
		c-70.41-69.53-93.68-104.75-121.35-147.54c-21.11-32.72-36.4-67.4-32.08-106.11c4.34-39.1,12.38-77.64,19.63-116.28
		c0.05-0.29,1-0.41,1.6-0.66c1.55,45.14,18.78,84.75,52.96,116.86c14.8,13.88,21.38,27.11,14.49,45.34
		c-3.25,8.64-0.41,15.63,5.82,23.01c28.66,33.93,59.07,66.35,90.91,97.71c48.66,47.88,101.88,91.57,149.06,140.81
		c37.28,38.9,82.1,98.34,103.22,185.47C825.5,674.83,824.43,719.34,822.27,746.79z"/>
</g>
</svg>
