<?xml version="1.0" encoding="utf-8"?>
<!-- Generator: Adobe Illustrator 28.0.0, SVG Export Plug-In . SVG Version: 6.00 Build 0)  -->
<svg version="1.1" id="Layer_1" xmlns="http://www.w3.org/2000/svg" xmlns:xlink="http://www.w3.org/1999/xlink" x="0px" y="0px"
	 viewBox="0 0 1080 1080" style="enable-background:new 0 0 1080 1080;" xml:space="preserve">
<style type="text/css">
	.st0{fill:#EEEEE4;}
	.st1{fill:#552D0E;}
	.st2{fill:#844B36;}
</style>
<path class="st0" d="M649.2,144.7c0.4,2.2-0.9,3.1-1.9,4.1c-16.8,16.5-30.7,35.4-43.9,54.8c-3.4,4.9-5.3,3.3-8.2,0.1
	c-15.9-17.6-30.7-36.1-44.6-55.3c-2.2-3-2.4-5.4-0.1-8.6c13.1-18.3,26.3-36.4,41.7-52.8c4.1-4.4,7-5.7,11.6-0.2
	c14.8,17.5,29.6,35.1,42.9,53.8C647.7,142,648.5,143.5,649.2,144.7z"/>
<path class="st0" d="M790,906.3c-3.5,4.5-9.2,11.7-18.9,21c-60,57.6-132.4,74.6-132.4,74.6c-24.6,5.8-69.9,12.8-123.6,0
	c-85.3-20.3-161.7-83.2-185.4-153c-6-17.8-13.5-50.3-17.4-84.5c-2.7-23.2-3.2-42.8-3.2-56.7c-7.7,27.7-18.9,82.2-4.9,148
	c6.5,30.3,19.6,88.5,69.6,137.4c53.4,52.3,117,62.7,150,67.7c37.4,5.6,154.6,23.2,235.4-58.8c63.6-64.6,64.7-150.6,64.3-173.5
	C817.8,847.5,810.8,880.1,790,906.3z"/>
<g>
	<path d="M514.3,869.7c-2.6-8.4-3.5-12.1-2.6-11.3c0,0,0,0,0,0C512.6,862.2,513.4,866,514.3,869.7z"/>
</g>
<g>
	<path d="M472.6,913.9c-0.6-0.9-1.2-1.8-1.7-2.8c0.3,0.2,0.7,0.3,1,0.4C472.1,912.2,472.4,913,472.6,913.9z"/>
</g>
<g>
	<path class="st0" d="M815.2,722.7c-3-16.1-12.5-38-14.8-50.5c14.4,77.1-19.1,157.4-81.1,204.6c-38.1,29-85.4,44.2-133.2,48.2
		c-0.2-0.4-0.4-0.7-0.7-0.8c-19.2-9.2-38-20.8-53.2-35.9c-2.3-2.3-4.6-4.7-6.7-7.3c1.7-6.6,4.4-12.9,7.6-18.9
		c15.1-28.6,35.5-53.8,54.9-79.4c20.5-27,25.5-61.3,21.2-94.3c-1.1-8.8-4.5-17.8-7-26.4c-2.4-8.3-6.9-17.5-8.1-26.1
		c3.9,30,0.4,62.1-16.6,87.9c-5.9,8.9-13.2,16.9-19.7,25.4c-10.7,14-20.4,28.8-29.8,43.7c-12.4,19.5-22.7,38.8-17.3,62.4
		c0.2,1.1,0.5,2.2,0.8,3.3c0,0,0,0,0,0c0.9,3.7,1.7,7.5,2.6,11.3c0,0,0,0,0,0c4.6,19.2,10.1,38.7,20.6,55.3c-4-0.3-7.9-0.7-11.8-1.3
		c-15.3-9.8-29.7-21-42.5-33.9c-9-9-17.2-18.9-23.9-29.8c-0.1-0.2-0.2-0.4-0.3-0.5c0-0.7,0.1-1.5,0.1-2.2c1-14.8,6.8-28.2,12.9-41.5
		c7.8-16.8,16.2-33.1,27.1-48.1c15-20.8,34.2-38.4,45.4-61.7c14.4-29.8,16-62.9,11.4-95.2c-1.5-10.9-5.8-21.9-8.9-32.4
		c-1.5-5.2-2.8-10.6-4.7-15.6c-0.2-0.5-1.5-5.1-1.2-2.5c4.7,33.2,2.1,67.5-13.8,97.4c-14.1,26.7-37.8,47-53.5,72.8
		c-17.1,28.1-34.8,61.7-28.5,95.5c1,5.4,2.2,10.8,3.5,16.3c0,0,0,0.1,0,0.2c1.3,7.2,6.7,26.5,9.4,32.8c0,0,0,0.1,0,0.1
		c1.8,5.3,3.6,10.6,5.5,15.8c2.2,6,4.9,11.7,8,17.2c-11.7-7.7-22.3-17.2-31.9-27.2c-9.3-9.8-17.7-20.5-24.8-32
		c-3.1-5-6-10.3-8.5-15.6c0-0.1,0-0.2,0-0.4c-3.5-34.8,5.1-70,22.8-100c12.4-21.1,30.3-37.9,43.7-58.4
		c25.2-38.3,40.2-82.2,44.6-127.7c0.7-7.6-4.9-19.1-7-26.4c-1.8-6.2-3.6-12.4-5.5-18.5c-0.6-1.9-2.7-5.8-2.6-7.6
		c-4.4,45.5-19.4,89.5-44.6,127.8c-15.2,23.1-35.5,41.9-48.3,66.7c-18.2,35.2-23.4,75.4-14.4,114c6.5,27.6,13.7,55.8,25.8,81.4
		c-13.2-9-25.6-19.4-36.8-31.2c-12.5-13.2-23.4-28-32.3-43.9c-2.2-4-4.3-8.1-6.3-12.3c0.4,3.4,0.7,6.8,0.8,10.2
		c0.1,2-12.4-37.9-6.1-22.6c1,2.4,1.9,4.9,2.9,7.3c0.8,1.8,1.5,3.5,2.4,5.2c-1.3-11.1-3.8-22.2-3.7-33.6
		c0.2-41.7,12.2-82.7,30.2-120.1c6.6-13.7,14-27,22.1-39.9c8.5-13.5,18.4-25.9,28.1-38.5c3.7-4.8,7.4-9.8,11-14.8
		c29.2-41.8,42.8-94,46-144.4c0.5-7.9-4.9-18.9-7-26.4c-1.1-4-2.3-8-3.5-12c-0.7-2.2-1.3-4.4-2-6.5c-0.2-0.6-0.5-1.4-0.9-2.2
		c-0.6-1.5-1.3-3.1-1.6-4.4c0-0.3-0.1-0.5-0.1-0.8c-3.1,48.3-15.8,98.3-42.5,139.1c-10.8,16.4-24,31-35.1,47.2
		c-8.7,12.6-16.5,26-23.6,39.6c-19.7,37.6-33.7,79.1-35.8,121.8c-1.3,26,2.8,51,9.7,76.1c7.4,27.1,14.5,54.8,27.6,79.9
		c35.5,68.1,102.6,107.8,175.1,118.6c0.4,0.1,0.8,0.1,1.2,0.2c55.4,8.1,113.8-0.7,163.8-26.4C784.4,907.2,832.3,814,815.2,722.7z
		 M398.1,819c1.7,4,3.1,7.6,4.3,10.7C400.8,826.2,399.5,822.5,398.1,819z M404.4,835.2C411.7,855.3,406.3,849.2,404.4,835.2
		L404.4,835.2z M470.9,911.1c0.3,0.2,0.7,0.3,1,0.4c0.3,0.8,0.5,1.6,0.7,2.4C472,912.9,471.4,912,470.9,911.1z"/>
	<path class="st1" d="M343.4,797.1c0.4,3.4,0.7,6.8,0.8,10.2c0.1,2-12.4-37.9-6.1-22.6c1,2.4,1.9,4.9,2.9,7.3
		C341.8,793.7,342.6,795.4,343.4,797.1z"/>
	<path class="st1" d="M472.6,913.9c-0.6-0.9-1.2-1.8-1.7-2.8c0.3,0.2,0.7,0.3,1,0.4C472.1,912.2,472.4,913,472.6,913.9z"/>
</g>
<g>
	<path class="st2" d="M471.9,911.4c0.3,0.8,0.5,1.6,0.7,2.4c-0.6-0.9-1.2-1.8-1.7-2.8C471.2,911.2,471.5,911.3,471.9,911.4z"/>
	<path class="st2" d="M538.8,976.7c-0.5-0.3-1-0.6-1.5-1c0.4,0.1,0.8,0.1,1.2,0.2C538.6,976.3,538.7,976.6,538.8,976.7z"/>
	<path class="st2" d="M763.2,902.4c0.1-0.1,0.4-0.4,0.9-0.9C763.6,902.1,763.3,902.5,763.2,902.4
		C763.2,902.5,763.2,902.4,763.2,902.4z"/>
	<path class="st0" d="M822.3,746.8c-0.5,6.2-1,11.5-1.5,15.8c-1.3,12.2-3,23-4.8,32.4c0,0.2-0.1,0.3-0.1,0.5
		c-4.8,23.5-10.8,38.8-15.2,48.9c-12.8,29.9-32.1,52.1-36.6,57c0.3-0.4,0.7-1,1.1-1.6c0,0,0,0,0,0c6.1-9.8,23.9-45.3,33.1-93.8
		c0,0,6.4-33.7,3.5-69.5c-2.8-34.2-16.3-94.5-112.5-200.8c-35.5-39.2-28.7-25.6-131.4-123c-10.6-10-20.3-19.5-29.3-28.3l0,0
		c-70.4-69.5-93.7-104.8-121.4-147.5c-21.1-32.7-36.4-67.4-32.1-106.1c4.3-39.1,12.4-77.6,19.6-116.3c0-0.3,1-0.4,1.6-0.7
		c1.5,45.1,18.8,84.8,53,116.9c14.8,13.9,21.4,27.1,14.5,45.3c-3.2,8.6-0.4,15.6,5.8,23c28.7,33.9,59.1,66.4,90.9,97.7
		c48.7,47.9,101.9,91.6,149.1,140.8c37.3,38.9,82.1,98.3,103.2,185.5C825.5,674.8,824.4,719.3,822.3,746.8z"/>
</g>
</svg>
