<?xml version="1.0" encoding="utf-8"?>
<!-- Generator: Adobe Illustrator 27.3.1, SVG Export Plug-In . SVG Version: 6.00 Build 0)  -->
<svg version="1.1" id="Layer_1" xmlns="http://www.w3.org/2000/svg" xmlns:xlink="http://www.w3.org/1999/xlink" x="0px" y="0px"
	 viewBox="0 0 1080 1080" style="enable-background:new 0 0 1080 1080;" xml:space="preserve">
<style type="text/css">
	.st0{enable-background:new    ;}
	.st1{fill:#552D0E;}
</style>
<g class="st0">
	<path class="st1" d="M534.54,51.75c235.21,0,394.2,166.61,394.2,410.53c0,210.17-115.43,356.08-296.19,393.11
		c67.51,18.51,136.12,49,201.45,49c14.16,0,27.22-1.09,40.29-4.36c28.31-7.62,38.11-17.42,57.71-49l18.51,10.89
		c7.62,62.07-6.53,166.61-109.98,189.48c-13.07,3.27-27.22,4.36-40.29,4.36c-94.74,0-188.39-66.43-296.19-66.43
		c-17.42,0-34.85,1.09-53.36,5.44c-15.25,4.36-41.38,11.98-55.54,30.49l-19.6-11.98c6.53-25.04,11.98-114.34,83.85-155.72
		c-191.65-30.49-320.15-179.68-320.15-398.55C139.26,214,300.42,51.75,534.54,51.75z M533.45,796.59
		c129.58,0,215.61-136.12,215.61-341.93c0-203.63-83.85-335.39-210.17-335.39c-129.58,0-218.88,136.12-218.88,343.02
		C320.02,664.83,404.96,796.59,533.45,796.59z"/>
</g>
</svg>
