<svg xmlns="http://www.w3.org/2000/svg" xmlns:xlink="http://www.w3.org/1999/xlink" version="1.1" id="Layer_1" x="0px" y="0px" style="enable-background:new 0 0 595.3 841.9;" xml:space="preserve" viewBox="192 256.2 335.6 514.9">
<style type="text/css">
	.st0{fill:#553017;}
	.st1{fill:#854D38;}
	.st2{fill:#552F14;}
	.st3{fill:#010101;}
	.st4{fill:#854C37;}
</style>
<g>
	<path class="st0" d="M240.9,725.7c0,6-4.1,10.4-9.1,10.4c-5.2,0-9.2-4.4-9.2-10c0-3.3,1.3-6.1,3.3-7.9c-0.5-0.2-1.9-0.8-3.8-0.8   c-7.2,0-13.3,8.5-13.3,21c0,12.4,6,20.9,15.3,20.9c9.7,0,15.7-8.9,16.7-12.8h2.1c-2.7,12.4-9.4,24.4-24.2,24.4   c-13.8,0-26.7-10.7-26.7-29.4c0-17.6,11.3-31.3,28.3-31.3C232.1,710.3,240.9,717.2,240.9,725.7z"/>
	<path class="st0" d="M295.7,729.7c0,12.7-9.8,22.3-23.2,22.3c-2.7,0-5.6-0.5-8.5-1.2c2.5,5.5,7,8.7,12.8,8.7   c9.7,0,15.7-8.9,16.7-12.8h2.1c-3.2,14.6-11.9,24.4-25.3,24.4c-14.8,0-25.6-11.6-25.6-29.4c0-18.7,11.9-31.3,29.5-31.3   C289.1,710.3,295.7,719.4,295.7,729.7z M273.6,717.4c-6.1,0-12.2,8.5-12.2,21c0,3.1,0.4,6.1,1,8.7   C283.7,740.4,283.3,717.4,273.6,717.4z"/>
	<path class="st0" d="M335.9,732.4c0-8.2-2.8-13.2-7.9-13.2c-4.8,0-8.2,4.8-8.9,12.3v28c0,2.7,1.4,5.5,3.2,7.2l1,0.8v2.4h-25.2v-2.4   l0.9-0.8c2-1.7,3.3-4.5,3.3-7.2v-34.1c0-2.7-1.3-5.6-3.3-7.2l-0.9-0.8V715l16.8-3.5h4.2v8.9c3.6-6.3,9.7-10.1,16.9-10.1   c10.8,0,16.7,8.4,16.7,20.9v29.1c0,2.9,0.8,4.1,2.8,4.1c0,0,1.5,0,2.4-1.6c0,2.8-3.7,8.1-11.3,8.1c-6.7,0-10.7-4.1-10.7-12.9   L335.9,732.4L335.9,732.4z"/>
	<path class="st0" d="M396.8,732.4c0-8.2-2.8-13.2-7.9-13.2c-4.8,0-8.2,4.8-8.9,12.3v28c0,2.7,1.4,5.5,3.2,7.2l1,0.8v2.4H359v-2.4   l0.9-0.8c2-1.7,3.3-4.5,3.3-7.2v-34.1c0-2.7-1.3-5.6-3.3-7.2l-0.9-0.8V715l16.8-3.5h4.2v8.9c3.6-6.3,9.7-10.1,16.9-10.1   c10.8,0,16.7,8.4,16.7,20.9v29.1c0,2.9,0.8,4.1,2.8,4.1c0,0,1.5,0,2.4-1.6c0,2.8-3.7,8.1-11.3,8.1c-6.7,0-10.7-4.1-10.7-12.9   L396.8,732.4L396.8,732.4z"/>
	<path class="st0" d="M445.1,767.5v2.4h-25.2v-2.4l0.9-0.8c2-1.7,3.3-4.5,3.3-7.2v-34.1c0-2.7-1.3-5.6-3.3-7.2l-0.9-0.8V715   l16.8-3.5h4.2v47.9c0,2.7,1.4,5.5,3.2,7.2L445.1,767.5z M432.4,687c5.4,0,9.7,5,9.7,10.8c0,5.8-4.4,10.7-9.7,10.7   c-5.3,0-9.6-4.8-9.6-10.7C422.8,692,427.1,687,432.4,687z"/>
	<path class="st0" d="M494.6,732.3v28.1c0,2.9,0.8,4.1,2.8,4.1c0,0,1.5,0,2.3-1.6c0,2.8-3.6,8.1-11.2,8.1c-5.5,0-9.3-2.8-10.4-8.5   c-3.3,5.6-8.8,8.5-14.9,8.5c-9.3,0-16.5-6.8-16.5-16.9c0-20.7,29.7-18.5,30.4-27.8c-2-7.4-7.4-9.9-10.9-9.9c-1.4,0-2.4,0.3-2.9,0.8   c1.7,1.6,2.9,4.1,2.9,6.9c0,4.7-3.5,8.7-8,8.7s-8-3.9-8-9.1c0-7.8,7.6-13.3,20.4-13.3C481.8,710.3,494.6,714.7,494.6,732.3z    M477.8,734.6c-5.1,4.1-14.3,6-14.3,15.6c0,5.6,3.1,9.1,6.4,9.1c3.6,0,7.3-4.4,7.9-11L477.8,734.6L477.8,734.6L477.8,734.6z"/>
	<path class="st0" d="M525.7,767.5v2.4h-25.2v-2.4l0.9-0.8c2-1.7,3.3-4.5,3.3-7.2v-57.4c0-2.7-1.3-5.6-3.3-7.2l-0.9-0.9v-2.2   l16.8-3.5h4.2v71.2c0,2.7,1.4,5.5,3.2,7.2L525.7,767.5z"/>
</g>
<g>
	<path class="st0" d="M228.9,596.9c21.9,0,36.7,17.2,36.7,42.4c0,21.7-10.7,36.8-27.6,40.6c6.3,1.9,12.7,5.1,18.7,5.1   c1.3,0,2.5-0.1,3.7-0.5c2.6-0.8,3.5-1.8,5.4-5.1l1.7,1.1c0.7,6.4-0.6,17.2-10.2,19.6c-1.2,0.3-2.5,0.5-3.7,0.5   c-8.8,0-17.5-6.9-27.6-6.9c-1.6,0-3.2,0.1-5,0.6c-1.4,0.5-3.8,1.2-5.2,3.1l-1.8-1.2c0.6-2.6,1.1-11.8,7.8-16.1   c-17.8-3.1-29.8-18.6-29.8-41.2C192.1,613.7,207.1,596.9,228.9,596.9z M228.8,673.9c12.1,0,20.1-14.1,20.1-35.3   c0-21-7.8-34.7-19.5-34.7c-12.1,0-20.4,14.1-20.4,35.4C208.9,660.3,216.8,673.9,228.8,673.9z"/>
	<path class="st0" d="M325.1,674.4c0,0,1.5,0,2.4-1.6c0,2.8-3.7,8.1-11.3,8.1c-6,0-9.9-3.3-10.6-10.1c-3.5,6.3-9.6,10.1-17,10.1   c-10.7,0-16.6-8.3-16.6-20.8v-24.8c0-2.7-1.3-5.6-3.3-7.2l-0.9-0.8V625l16.8-3.5h4.2v37.4c0,8.3,2.8,13.3,7.9,13.3   c4.8,0,8.2-4.6,8.9-11.9v-25.8c-0.3-2.5-1.4-5-3.2-6.3l-0.9-0.8V625l16.7-3.5h4.3v49C322.3,673.2,323.1,674.4,325.1,674.4z"/>
	<path class="st0" d="M354,677.4v2.4h-25.2v-2.4l0.9-0.8c2-1.7,3.3-4.5,3.3-7.2v-34.1c0-2.7-1.3-5.6-3.3-7.2l-0.9-0.8V625l16.8-3.5   h4.2v47.9c0,2.7,1.4,5.5,3.2,7.2L354,677.4z M341.3,596.9c5.4,0,9.7,5,9.7,10.8c0,5.8-4.4,10.7-9.7,10.7c-5.3,0-9.6-4.8-9.6-10.7   C331.7,601.9,336,596.9,341.3,596.9z"/>
	<path class="st0" d="M393.4,642.3c0-8.2-2.8-13.2-7.9-13.2c-4.8,0-8.2,4.8-8.9,12.3v28c0,2.7,1.4,5.5,3.2,7.2l1,0.8v2.4h-25.2v-2.4   l0.9-0.8c2-1.7,3.3-4.5,3.3-7.2v-34.1c0-2.7-1.3-5.6-3.3-7.2l-0.9-0.8V625l16.8-3.5h4.2v8.9c3.6-6.3,9.7-10.1,16.9-10.1   c10.8,0,16.7,8.4,16.7,20.9v29.1c0,2.9,0.8,4.1,2.8,4.1c0,0,1.5,0,2.4-1.6c0,2.8-3.7,8.1-11.3,8.1c-6.7,0-10.7-4.1-10.7-12.9V642.3   z"/>
	<path class="st0" d="M449.7,603.9v-2.2l16.7-3.5h4.3v72.1c0,2.9,0.8,4.1,2.8,4.1c0,0,1.5,0,2.4-1.6c0,2.8-3.7,8.1-11.3,8.1   c-5.1,0-8.6-2.2-10.1-7.3c-3.1,4.6-7.7,7.3-14.5,7.3c-14.2,0-23.9-12-23.9-30c0-18.3,10.1-30.6,24.9-30.6c5.9,0,9.9,2,12.9,5.3V612   c0-2.7-1.2-5.6-3.2-7.2L449.7,603.9z M453.8,653.8v-6.3c-0.6-12.4-4.9-20.1-10.8-20.1c-6.5,0-10.1,9.3-10.1,23   c0,14.5,4.2,23.6,10.3,23.6C449.1,673.9,453.2,666,453.8,653.8z"/>
	<path class="st0" d="M527.6,639.6c0,12.7-9.8,22.3-23.2,22.3c-2.7,0-5.6-0.5-8.5-1.2c2.5,5.5,7,8.7,12.8,8.7   c9.7,0,15.7-8.9,16.7-12.8h2.1c-3.2,14.6-11.9,24.4-25.3,24.4c-14.8,0-25.6-11.6-25.6-29.4c0-18.7,11.9-31.3,29.5-31.3   C521,620.2,527.6,629.3,527.6,639.6z M505.5,627.3c-6.1,0-12.2,8.5-12.2,21c0,3.1,0.4,6.1,1,8.7   C515.6,650.3,515.2,627.3,505.5,627.3z"/>
</g>
<path class="st1" d="M386.7,297.1c0.1,0.7-0.3,1-0.6,1.3c-5.3,5.2-9.6,11.1-13.8,17.2c-1.1,1.5-1.7,1-2.6,0c-5-5.5-9.6-11.3-14-17.3  c-0.7-0.9-0.7-1.7,0-2.7c4.1-5.7,8.3-11.4,13.1-16.5c1.3-1.4,2.2-1.8,3.6-0.1c4.7,5.5,9.3,11,13.4,16.9  C386.3,296.2,386.5,296.7,386.7,297.1z"/>
<path class="st2" d="M430.9,535.7c-1.1,1.4-2.9,3.7-5.9,6.6c-18.8,18.1-41.5,23.4-41.5,23.4c-7.7,1.8-21.9,4-38.7,0  c-26.7-6.3-50.7-26.1-58.1-47.9c-1.9-5.6-4.2-15.8-5.5-26.5c-0.8-7.3-1-13.4-1-17.8c-2.4,8.7-5.9,25.8-1.5,46.4  c2,9.5,6.2,27.7,21.8,43.1c16.7,16.4,36.7,19.7,47,21.2c11.7,1.8,48.5,7.3,73.8-18.4c19.9-20.2,20.3-47.2,20.2-54.4  C439.6,517.3,437.4,527.5,430.9,535.7z"/>
<g>
	<path class="st3" d="M344.5,524.3c-0.8-2.6-1.1-3.8-0.8-3.5c0,0,0,0,0,0C343.9,521.9,344.2,523.1,344.5,524.3z"/>
</g>
<g>
	<path class="st3" d="M331.4,538.1c-0.2-0.3-0.4-0.6-0.5-0.9c0.1,0,0.2,0.1,0.3,0.1C331.3,537.6,331.3,537.9,331.4,538.1z"/>
</g>
<g>
	<path class="st2" d="M438.8,478.2c-0.9-5-3.9-11.9-4.6-15.8c4.5,24.2-6,49.3-25.4,64.1c-11.9,9.1-26.8,13.9-41.7,15.1   c-0.1-0.1-0.1-0.2-0.2-0.2c-6-2.9-11.9-6.5-16.7-11.3c-0.7-0.7-1.4-1.5-2.1-2.3c0.5-2.1,1.4-4,2.4-5.9c4.7-9,11.1-16.9,17.2-24.9   c6.4-8.5,8-19.2,6.6-29.6c-0.4-2.8-1.4-5.6-2.2-8.3c-0.8-2.6-2.2-5.5-2.5-8.2c1.2,9.4,0.1,19.5-5.2,27.5c-1.8,2.8-4.1,5.3-6.2,7.9   c-3.4,4.4-6.4,9-9.4,13.7c-3.9,6.1-7.1,12.2-5.4,19.6c0.1,0.3,0.2,0.7,0.2,1c0,0,0,0,0,0c0.3,1.2,0.5,2.3,0.8,3.5c0,0,0,0,0,0   c1.4,6,3.2,12.1,6.4,17.3c-1.2-0.1-2.5-0.2-3.7-0.4c-4.8-3.1-9.3-6.6-13.3-10.6c-2.8-2.8-5.4-5.9-7.5-9.3c0-0.1-0.1-0.1-0.1-0.2   c0-0.2,0-0.5,0-0.7c0.3-4.6,2.1-8.9,4-13c2.4-5.3,5.1-10.4,8.5-15.1c4.7-6.5,10.7-12,14.2-19.3c4.5-9.3,5-19.7,3.6-29.8   c-0.5-3.4-1.8-6.9-2.8-10.1c-0.5-1.6-0.9-3.3-1.5-4.9c-0.1-0.2-0.5-1.6-0.4-0.8c1.5,10.4,0.7,21.1-4.3,30.5   c-4.4,8.4-11.8,14.7-16.8,22.8c-5.3,8.8-10.9,19.3-8.9,29.9c0.3,1.7,0.7,3.4,1.1,5.1c0,0,0,0,0,0.1c0.4,2.3,2.1,8.3,3,10.3   c0,0,0,0,0,0c0.5,1.7,1.1,3.3,1.7,5c0.7,1.9,1.5,3.7,2.5,5.4c-3.7-2.4-7-5.4-10-8.5c-2.9-3.1-5.5-6.4-7.8-10   c-1-1.6-1.9-3.2-2.7-4.9c0,0,0-0.1,0-0.1c-1.1-10.9,1.6-21.9,7.1-31.4c3.9-6.6,9.5-11.9,13.7-18.3c7.9-12,12.6-25.8,14-40   c0.2-2.4-1.5-6-2.2-8.3c-0.6-1.9-1.1-3.9-1.7-5.8c-0.2-0.6-0.9-1.8-0.8-2.4c-1.4,14.3-6.1,28-14,40c-4.8,7.2-11.1,13.1-15.1,20.9   c-5.7,11-7.3,23.6-4.5,35.7c2,8.6,4.3,17.5,8.1,25.5c-4.1-2.8-8-6.1-11.5-9.8c-3.9-4.1-7.3-8.8-10.1-13.8c-0.7-1.3-1.4-2.5-2-3.8   c0.1,1.1,0.2,2.1,0.3,3.2c0,0.6-3.9-11.9-1.9-7.1c0.3,0.8,0.6,1.5,0.9,2.3c0.2,0.5,0.5,1.1,0.7,1.6c-0.4-3.5-1.2-7-1.2-10.5   c0.1-13.1,3.8-25.9,9.5-37.6c2.1-4.3,4.4-8.5,6.9-12.5c2.6-4.2,5.8-8.1,8.8-12.1c1.2-1.5,2.3-3.1,3.4-4.6   c9.2-13.1,13.4-29.5,14.4-45.2c0.2-2.5-1.5-5.9-2.2-8.3c-0.4-1.3-0.7-2.5-1.1-3.7c-0.2-0.7-0.4-1.4-0.6-2.1   c-0.1-0.2-0.2-0.4-0.3-0.7c-0.2-0.5-0.4-1-0.5-1.4c0-0.1,0-0.2,0-0.2c-1,15.1-4.9,30.8-13.3,43.6c-3.4,5.1-7.5,9.7-11,14.8   c-2.7,4-5.2,8.1-7.4,12.4c-6.2,11.8-10.6,24.8-11.2,38.2c-0.4,8.2,0.9,16,3,23.8c2.3,8.5,4.5,17.2,8.6,25   c11.1,21.3,32.2,33.8,54.9,37.2c0.1,0,0.2,0,0.4,0.1c17.4,2.5,35.7-0.2,51.3-8.3C429.1,536,444.1,506.8,438.8,478.2z M308,508.4   c0.5,1.3,1,2.4,1.4,3.3C308.9,510.6,308.5,509.5,308,508.4z M310,513.5C312.3,519.8,310.6,517.8,310,513.5L310,513.5z M330.9,537.2   c0.1,0,0.2,0.1,0.3,0.1c0.1,0.2,0.2,0.5,0.2,0.8C331.2,537.8,331,537.5,330.9,537.2z"/>
	<path class="st2" d="M290.9,501.5c0.1,1.1,0.2,2.1,0.3,3.2c0,0.6-3.9-11.9-1.9-7.1c0.3,0.8,0.6,1.5,0.9,2.3   C290.4,500.4,290.6,501,290.9,501.5z"/>
	<path class="st2" d="M331.4,538.1c-0.2-0.3-0.4-0.6-0.5-0.9c0.1,0,0.2,0.1,0.3,0.1C331.3,537.6,331.3,537.9,331.4,538.1z"/>
</g>
<g>
	<path class="st4" d="M331.2,537.4c0.1,0.2,0.2,0.5,0.2,0.8c-0.2-0.3-0.4-0.6-0.5-0.9C331,537.3,331.1,537.3,331.2,537.4z"/>
	<path class="st4" d="M352.1,557.8c-0.2-0.1-0.3-0.2-0.5-0.3c0.1,0,0.2,0,0.4,0.1C352.1,557.7,352.1,557.8,352.1,557.8z"/>
	<path class="st4" d="M422.5,534.5c0,0,0.1-0.1,0.3-0.3C422.6,534.4,422.5,534.5,422.5,534.5C422.5,534.5,422.5,534.5,422.5,534.5z"/>
	<path class="st4" d="M441,485.8c-0.2,1.9-0.3,3.6-0.5,5c-0.4,3.8-0.9,7.2-1.5,10.2c0,0.1,0,0.1,0,0.1c-1.5,7.4-3.4,12.2-4.8,15.3   c-4,9.4-10.1,16.3-11.5,17.9c0.1-0.1,0.2-0.3,0.3-0.5c0,0,0,0,0,0c1.9-3.1,7.5-14.2,10.4-29.4c0,0,2-10.6,1.1-21.8   c-0.9-10.7-5.1-29.6-35.3-62.9c-11.1-12.3-9-8-41.2-38.5c-3.3-3.2-6.4-6.1-9.2-8.9l0,0c-22.1-21.8-29.4-32.8-38-46.2   c-6.6-10.3-11.4-21.1-10.1-33.3c1.4-12.3,3.9-24.3,6.2-36.4c0-0.1,0.3-0.1,0.5-0.2c0.5,14.1,5.9,26.6,16.6,36.6   c4.6,4.3,6.7,8.5,4.5,14.2c-1,2.7-0.1,4.9,1.8,7.2c9,10.6,18.5,20.8,28.5,30.6c15.3,15,31.9,28.7,46.7,44.1   c11.7,12.2,25.7,30.8,32.3,58.1C442,463.2,441.7,477.2,441,485.8z"/>
</g>
</svg>