<svg xmlns="http://www.w3.org/2000/svg" xmlns:xlink="http://www.w3.org/1999/xlink" version="1.1" id="Layer_1" x="0px" y="0px" style="enable-background:new 0 0 841.89 595.28;" xml:space="preserve" viewBox="20.53 23.6 775.37 361.9">
<style type="text/css">
	.st0{display:none;}
	.st1{display:inline;}
	.st2{fill:#552F14;}
</style>
<g class="st0">
	<path class="st1" d="M491.21,405.13c-7.01,13.61-18.41,25.12-31.98,32.31c-7.33,3.85-15.1,7.16-23.28,8.67   c-28.21,5.8-59.03-0.2-79.52-21.47c-17.31-16.6-24.01-42.33-21.68-65.66c0,0,0.5,0.03,0.5,0.03c0.06,9.26,1.44,18.5,4.15,27.34   c1.98,6.51,4.67,12.94,8.19,18.77c2.85,4.8,6.4,9.42,9.87,13.76c20.9,24.73,57.85,31.35,87.92,21.88   c9.84-3.22,18.6-9.1,26.51-15.69c7.03-5.91,13.32-12.72,18.89-20.21L491.21,405.13L491.21,405.13z"/>
</g>
<g class="st0">
	<g class="st1">
		<path d="M334.18,721.69c-6.85,16.99-11.93,33.05-13.56,50.92c-1.42,12.53-2.86,25.3,1.51,37.32c1.99,5.75,3.87,12.07,7.45,16.9    c16.88,20.97,46.93-8.32,58.05-22.92c8.7-11.67,14.15-25.55,16.77-39.83c0,0,0.1,0.02,0.1,0.02c-1.42,9.62-4.29,19.05-8.59,27.82    c-4.26,8.79-10.08,16.84-17.19,23.54c-7.05,6.7-14.8,12.86-23.73,16.91c-16.38,7.43-30.83,2.35-40.8-12.46    c-10.61-14.75-12.93-34.25-8.68-51.56C309.48,750.32,319.28,732.62,334.18,721.69L334.18,721.69z"/>
	</g>
	<g class="st1">
		<path d="M321.18,711.7c-5.15,8.93-10.1,17.69-14.02,27.03c-4.3,9.98-7.25,20.31-9.21,30.91c-1.51,7.97-3.11,16.08-2.47,24.16    c0.3,4.65,1.43,9.23,2.53,13.78c6.99,31.8,31.58,35.54,58.15,22.93c9.31-4.23,18.08-9.64,25.3-16.93    c7.27-7.18,13.16-15.73,17.64-24.94l0.09,0.04c-4.2,9.39-10,18.07-17.22,25.41c-12.83,13.47-36.57,24.94-55.39,23.65    c-16.24-1.18-31.1-11.82-38.68-26.11C269,777.03,288.54,730.23,321.18,711.7L321.18,711.7z"/>
	</g>
	<g class="st1">
		<path d="M304.17,701.7c-8.83,12.78-16.81,25.95-21.99,40.47c-2.01,5.68-3.62,11.62-4.81,17.52c-1.28,5.93-2.42,11.88-2.84,17.88    c-0.53,7.29,0.44,14.08,2.13,21.38c2.52,11.81,7.64,23.41,18.03,30.39c11.53,7.78,26.13,9.51,39.68,7.58    c10.42-1.36,20.58-4.61,29.56-10.12c8.99-5.46,16.88-12.73,23.17-21.17c0,0,0.08,0.06,0.08,0.06    c-6.05,8.67-13.89,16.09-22.88,21.73c-17.9,11.28-41.19,14.28-61.18,7.1c-21.03-8.19-38.14-25.35-42.2-48.14    c-4.41-22.61,3.11-46.58,17.66-64.09C285.64,713.87,294.34,706.25,304.17,701.7L304.17,701.7z"/>
	</g>
	<g class="st1">
		<path d="M298.16,668.7c-15.99,14-30.1,30.24-38.42,49.79c-5.54,13.33-9.17,27.52-9.7,42.01c-0.2,5.91,0.4,11.86,1,17.67    c1.12,10.38,3.63,21.11,9.35,30.08c4.14,6.56,9.94,12.09,16.46,16.26c13.16,8.62,29.12,11.77,44.66,11.98    c21.99,0.14,43.46-8.26,60.59-21.89c-9.22,8.15-20.87,14.34-32.7,18.36c-20.56,6.9-43.65,5.75-63.52-2.9    c-9.07-4.01-17.13-9.81-24.25-16.74c-20.34-19.17-28.15-45.12-24.93-72.59c2.4-20.12,12.92-39.11,27.84-52.65    C274.19,679.4,285.79,672.07,298.16,668.7L298.16,668.7z"/>
	</g>
</g>
<g class="st0">
	<g class="st1">
		<path d="M1171.71,586.84c-13.6-14.11-27.08-27.9-40.28-41.95c-3.27-3.48-6.03-7.58-8.36-11.77c-4.52-8.13-1.75-13.45,7.39-15.02    c1.77-0.3,3.57-0.39,5.85-0.62c-2.02,13.39,6.05,21.21,14.72,28.46c5.15,4.31,10.89,7.92,16.37,11.85    c0.46-0.31,0.91-0.62,1.37-0.93c-1.11-5.12-2.04-10.29-3.36-15.36c-3.82-14.67-11.34-27.67-18.66-40.76    c-3.98-7.12-7.88-14.29-11.66-21.51c-12.81-24.49-12.28-49.28,0.32-73.35c7.46-14.25,17.03-27.38,25.52-41.09    c8.67-14,18.08-27.63,25.53-42.26c8.9-17.46,6.46-35.51-1.25-53.05c-0.45,0.19-0.93,0.3-0.93,0.39    c1.16,19.57-7.51,36.04-17.33,51.74c-12.36,19.76-26.18,38.6-38.7,58.26c-16.8,26.37-23.51,54.94-16.07,85.92    c1.49,6.2,4.03,12.16,6.44,19.28c-9.83-11.84-17.89-23.57-24.18-36.47c-10.99-22.5-15.53-45.99-10.25-70.81    c3.37-15.85,9.66-30.51,19.8-43.22c12.05-15.1,24.68-29.74,36.63-44.92c13.2-16.77,23.41-35.19,28.65-56.09    c0.36-1.45,0.6-2.93,0.93-4.39c0.32-1.37,0.69-2.73,0.98-3.84c7.17,13.71,14.31,27.39,21.48,41.06    c6.42,12.23,13.48,24.17,19.18,36.72c12.93,28.47,8.92,55.58-8.54,80.93c-11.99,17.41-24.66,34.36-36.56,51.83    c-8.58,12.6-15.71,26.1-17.06,41.65c-0.59,6.84,0.27,13.8,0.47,20.7c0.41-0.01,0.83-0.02,1.24-0.03    c5.31-8.77,10.19-17.83,16.02-26.24c13.75-19.85,28.22-39.2,41.86-59.12c6.94-10.14,13.23-20.8,18.94-31.68    c9.82-18.74,12.52-38.42,4.97-59.07c0.85,0.08,1.43-0.05,1.69,0.18c18.08,16.1,27.35,36.02,24.32,60.37    c-2.22,17.87-15.78,30.31-35.57,34.42c-3.4,0.71-6.83,1.26-10.17,2.37c15.38,5.22,29.89,2.75,43.76-5.48    c0.42,0.23,0.83,0.47,1.25,0.7c-2.39,6.9-4.38,13.97-7.25,20.67c-9.05,21.05-23.33,38.71-37.26,56.59    c-12.59,16.15-25.65,32.02-34.31,50.82c-2.07,4.5-3.69,9.22-5.67,14.25c13.15-4.91,35.99-22.58,32.56-39.33    c2.77,0.33,5.41,0.4,7.92,1.01c6.59,1.59,9.28,5.89,6.26,11.87c-3.04,6-7.02,11.74-11.54,16.72    c-9.07,9.98-18.84,19.32-28.21,29.03C1177.61,579.66,1174.65,583.43,1171.71,586.84z"/>
	</g>
	<g class="st1">
		<path d="M409.03-44.59c-0.45-3.66-0.13-7.32,0.79-10.7c1.37-5.07-0.18-7.55-4.73-10.24c-11.17-6.6-18.1-16.93-22.49-29.02    c-0.24-0.65-0.48-1.3-0.73-1.94c-0.02-0.05-0.12-0.07-0.41-0.22c-3.03,5.21-4.72,10.93-6.39,16.71c-0.04-6.5,0.47-12.91,1.43-19.3    c0.65-4.28,1.22-8.76,2.65-12.67c4.19-11.47,9.25-22.56,17.39-32.04c10.75-12.53,23.12-23.22,35.99-33.4    c19.06-15.07,38.01-30.26,54.95-47.77c4.58-4.74,8.98-9.66,13.24-14.69c0.9-1.06,1.32-2.14,1.32-3.51c0-3.38,0.21-6.77,0.12-10.15    c-0.06-2.07,0.58-3.59,2.03-5.07c5.11-5.25,9.33-11.18,12.69-17.69c2.19-4.26,3.8-8.72,3.43-13.68c0.17,8.95,0.44,17.87-0.09,26.8    c-0.36,6-1.04,11.87-2.5,17.7c-2.21,8.78-6.89,16.2-12.24,23.32c-12.86,17.08-28.04,31.9-44.18,45.81    c-10.78,9.29-22.06,17.96-33.15,26.89c-2.54,2.04-2.59,2.74-0.04,4.87c3.99,3.33,8.44,3.19,12.98,1.4    c3.85-1.52,7.03-4.1,10.09-6.8c13.54-11.93,27.05-23.88,40.58-35.82c7.1-6.26,14.38-12.28,22.67-16.96    c1.9-1.07,3.86-1.97,5.98-2.5c5.26-1.31,8.82,0.82,10.13,6.12c0.56,2.27,0.91,4.58,0.86,6.94c-0.13,6.25-0.46,12.49-0.35,18.74    c0.14,8.41-2.78,15.59-7.97,22.01c-7.91,9.78-17.49,17.81-27.07,25.83c-18.84,15.78-39.03,29.76-58.75,44.37    c-6.35,4.71-12.57,9.56-17.5,15.84c-2.23,2.85-2.23,2.84,1.18,3.67c3.88,0.96,7.83,1.51,11.81,1.79    c29.02,2.01,56.42-2.27,80.14-20.75c20.62-16.06,34.5-36.78,42.54-61.52c1.3-4,2.33-8.09,3.58-12.12    c-0.14,3.28-1.1,6.42-1.99,9.54c-8.61,30.18-24.9,54.93-51.48,72.29C490.2-62.52,473.2-57.7,455.04-56.56    c-11.56,0.73-23.06,0.56-34.41-2.1c-4.85-1.14-4.79-1.17-7.16,3.41C411.69-51.83,410.41-48.21,409.03-44.59z M425.22-147.13    c-2.93,2.48-5.36,4.49-7.75,6.56c-13.39,11.59-25.31,24.45-34.09,39.98c-0.84,1.48-1.06,2.75-0.41,4.38    c5.03,12.7,13.21,22.68,25.14,29.48c3,1.71,3.16,1.72,3.67-1.73c2.21-14.94,9.71-26.39,22.15-34.9    c7.58-5.19,14.82-10.87,22.24-16.29c18.77-13.72,37.44-27.55,54.56-43.34c5.36-4.94,10.76-9.84,14.92-15.9    c1.54-2.25,1.26-2.86-1.48-3.18c-2.95-0.35-5.67,0.52-8.26,1.81c-4.67,2.34-9.03,5.21-13.05,8.49    c-16.4,13.38-32.04,27.64-48.04,41.49c-3.21,2.78-6.3,5.72-10.01,7.85c-3.23,1.85-6.66,2.88-10.44,2.41    c-5.49-0.68-8.99-4.37-9.1-9.89C425.14-135.41,425.22-140.92,425.22-147.13z"/>
		<path d="M379.21-116.07c-2.19-27.47,3.65-52.14,21.76-73.26c11.35-13.23,24.79-23.96,38.9-33.97    c11.81-8.38,23.92-16.37,34.38-26.49c6.58-6.36,12.62-13.14,16.42-21.62c0.98-2.19,0.97-2.19,0.56-4.28    c-9.35,10.2-21.55,16.29-32.77,23.74c-14.32,9.51-28.11,19.73-41.32,30.73c-2.28,1.9-4.32,4.04-6.04,6.44    c-3.31,4.62-6.23,9.43-5.65,15.54c-0.72-0.21-0.58-0.7-0.57-1c0.23-7.72-0.31-15.44,0.39-23.15c0.69-7.58,4.03-13.91,9.13-19.39    c6.3-6.78,14.04-11.84,21.29-17.48c13.36-10.41,27.8-19.25,41.94-28.52c5.39-3.53,10.43-7.49,14.45-12.6    c0.34-0.43,0.59-1.22,1.36-0.9c0.66,0.28,0.51,1.03,0.61,1.61c0.63,3.62,0.6,7.3,0.27,10.9c-0.78,8.58-0.84,17.18-0.66,25.75    c0.24,11.34-3.97,20.75-10.88,29.3c-9.26,11.47-20.81,20.32-32.73,28.76c-11.39,8.07-23.12,15.69-33.55,25.03    c-14.07,12.59-25.8,26.9-32.59,44.79C381.52-129.79,379.99-123.23,379.21-116.07z"/>
		<path d="M393.18-179.86c-2.56-5.24-4.29-10.37-4.68-15.72c-1.21-16.6-0.92-33.13,4.54-49.12c5.57-16.35,16.43-28.73,29.78-39.19    c12.23-9.58,25.56-17.6,38.06-26.8c8.18-6.02,16.09-12.36,23.68-19.12c1.65-1.47,2.55-2.99,2.17-5.15    c-0.8-4.56,1.16-7.39,4.93-10.03c8.72-6.1,14.03-14.67,16.13-25.2c0.13,0.08,0.33,0.15,0.33,0.22c0.08,9.37,0.33,18.75-0.24,28.1    c-0.57,9.26-5.25,16.76-11.15,23.55c-11.67,13.45-25.33,24.65-39.77,34.96c-11.08,7.91-22.68,15.06-33.5,23.35    c-14.64,11.22-25.73,25.04-32.41,42.41c-3.02,7.86-2.67,15.56-0.9,23.44c0.85,3.8,1.89,7.56,2.83,11.35    C393.18-182,393.73-181.22,393.18-179.86z"/>
	</g>
	<g class="st1">
		<path d="M824.14-118.62c-10.25-16.32-6.91-30.3,3.93-43.1c12.06-14.24,25.52-27.18,38.68-40.4c1.53-1.53,2.99-3.13,4.58-4.6    c4.52-4.2,8.08-7.85,6.06-15.56c-1.74-6.66,2.49-13.46,6.54-19.26c1.61-2.31,3.63-4.34,5.47-6.49    c8.15-9.54,15.57-19.36,12.72-33.36c3.91,6.73,7.37,13.49,8.39,20.99c0.72,5.26,1.54,10.49,2.61,15.68    c2.2,10.63-1.07,19.65-7.69,27.83c-10.6,13.09-22.57,24.92-34.33,36.94c-7.45,7.62-15.02,15.13-22.39,22.82    C838.14-146.1,826.46-135.75,824.14-118.62z"/>
		<path d="M931.04-218.04c-2.43-2.4-2.85-6.31-6.64-8.37c0.67,3.09,1.27,5.82,1.86,8.55c2.24,10.26-0.04,19.43-6.54,27.64    c-10.57,13.34-22.7,25.24-34.54,37.41c-11.15,11.46-22.23,22.97-33.4,34.4c-7.37,7.54-12.31,16.38-14.44,27.28    c-8.5-12.88-7.87-27.31,2-40c10.96-14.09,24.12-26.19,36.59-38.9c11.31-11.53,22.75-22.93,33.3-35.18    c9.03-10.47,15.24-21.62,8.11-36.65c5.53,4.8,12.88,18.17,13.6,23.91L931.04-218.04z"/>
		<path d="M930.95-217.96c5.02,11.16,9.52,22.45,9.12,35.01c-0.28,8.91-5.22,15.62-10.64,22.01    c-16.28,19.19-34.81,36.25-52.15,54.43c-0.92,0.96-1.85,1.91-2.77,2.88c-10.26,10.85-21.57,21.01-23.94,37.56    c-8.72-13.27-7.97-27.27,2.16-40.49c8.62-11.25,19-20.94,28.91-31.03c14.11-14.36,28.48-28.48,41.64-43.75    c8.98-10.41,13.62-21.62,7.77-35.24c-0.18-0.42-0.01-0.98-0.01-1.47C931.04-218.04,930.95-217.96,930.95-217.96z"/>
		<path d="M957.97-163.97c4.91,12.08,10.2,24.11,8.07,37.68c-1.07,6.84-5.12,12.22-9.41,17.32c-12.13,14.42-25.58,27.58-38.81,40.97    c-8.43,8.53-16.64,17.26-25.02,25.84c-7.84,8.02-13.68,17.14-15.8,28.58c-8.76-10.49-7.88-26.9,1.98-39.88    c7.17-9.44,15.76-17.61,24.01-26.06c15.47-15.84,31.46-31.19,45.93-47.98c6.4-7.42,11.76-15.31,11.18-25.86    c-0.2-3.7-2.52-6.9-2.08-10.66L957.97-163.97z"/>
		<path d="M958.04-164.03c-2.71-2.61-2.9-7.01-6.85-9.26c0.06,3.94,1.64,7.37,2.04,10.99c1.07,9.68-1.43,18.08-7.52,25.59    c-13.04,16.09-27.93,30.43-42.46,45.12c-1.52,1.54-3.06,3.07-4.58,4.61c-6.58,6.68-6.57,6.68-11.6-1.5    c-5.01-8.16-5.01-8.16,1.63-14.87c15.7-15.88,31.71-31.45,46.39-48.31c3.84-4.41,7.45-8.98,9.8-14.4    c3.3-7.63,2.56-15.2-0.43-22.83c5.79,7.68,11.44,15.32,13.51,24.92C957.97-163.97,958.04-164.03,958.04-164.03z"/>
		<path d="M863.94-37.58c-8.95-15.4-7.8-28.4,2.85-42.1c7.65-9.84,7.65-9.84,13.99,0.45c0.61,0.99,1.11,2.08,1.85,2.96    c2.04,2.44,1.99,4.27-0.49,6.69C873.34-61,865.85-51.5,863.94-37.58z"/>
	</g>
	<g class="st1">
		<path d="M1090.53,822.97c-14.7-39.52-9.44-77.26,12.5-113.25c6.64-10.9,14.44-20.79,23.65-29.52c2.79-2.65,3.61-5.1,2.78-8.72    c-0.78-3.39-0.92-6.92-1.42-10.38c-1.98-13.94,3.36-24.22,15.26-31.54c12.27-7.56,26.14-10.51,39.63-14.66    c5.27-1.62,6.79,0.29,7.86,5.1c2.46,11.05,4.44,22.18,6.41,33.31c0.82,4.61-0.94,8.08-3.7,11.38    c-12.3,14.73-26.09,28.02-39.88,41.31c-14.38,13.86-29.49,27.05-40.09,44.33c-12.7,20.7-21.6,42.68-22.99,67.24    C1090.43,819.52,1090.53,821.48,1090.53,822.97z"/>
		<path d="M1103.18,878.31c-0.76-6.21-1.55-12.41-2.28-18.62c-2.49-21.06-3.79-41.91,2.16-62.86c8.32-29.28,24.72-53.19,46.37-73.88    c12.03-11.5,24.44-22.6,36.7-33.85c5.52-5.07,10.56-10.58,15.37-17.12c1.97,2.64,1.74,5.33,2.15,7.79    c1.72,10.52,2.72,21.11,3.57,31.73c0.26,3.17-0.43,5.77-2.41,8.31c-9.67,12.47-21.99,22.21-33.55,32.71    c-16.42,14.91-32.57,30.14-44.64,48.92C1111.64,824.75,1102.79,850.04,1103.18,878.31z"/>
		<path d="M1210.15,732.29c2.02,13.93,2.66,27.19,3.1,40.47c0.09,2.67-1.47,4.68-2.93,6.74c-11.21,15.84-24.95,29.46-38.19,43.5    c-14.64,15.52-28.77,31.32-39.1,50.31c-10.91,20.05-16.15,41.4-17.5,63.94c-0.07,1.15-0.13,2.31-0.2,3.57    c-0.42-0.23-0.83-0.33-0.85-0.49c-5.91-40.53-3.15-79.69,18.11-115.99c9.93-16.96,22.86-31.46,36.32-45.59    c13.78-14.46,27.88-28.66,39.44-45.07C1208.62,733.32,1209.08,733.1,1210.15,732.29z"/>
		<path d="M1149.81,995.76c0.29,1.47-0.61,2.09-1.29,2.75c-11.31,11.15-20.7,23.87-29.61,36.93c-2.26,3.32-3.58,2.21-5.51,0.08    c-10.73-11.85-20.7-24.31-30.08-37.25c-1.47-2.03-1.61-3.64-0.08-5.78c8.8-12.32,17.75-24.51,28.13-35.59    c2.78-2.97,4.74-3.81,7.84-0.15c10.01,11.81,19.93,23.66,28.92,36.27C1148.81,993.95,1149.35,994.99,1149.81,995.76z"/>
	</g>
	<path class="st1" d="M480.69,417.95c5.17-6.68,13.16-13.15,15.09-20.56c5.98-22.99,9.68-46.27,5.46-70.2   c-4.31-24.46-17.58-44.76-35.09-63.04c-16.04-16.74-34.13-31.59-50.67-47.87c-10.82-10.65-21.16-21.68-30.9-33.21   c-2.12-2.51-3.09-4.89-1.98-7.82c2.35-6.2,0.1-10.69-4.92-15.41c-11.62-10.91-17.48-24.38-18-39.72c-0.21,0.08-0.53,0.12-0.55,0.22   c-2.46,13.13-5.19,26.24-6.67,39.52c-1.47,13.16,3.73,24.95,10.91,36.06c14.23,22.02,32.01,41.42,51.2,59.78   c14.72,14.08,30.42,27.25,44.66,41.79c19.26,19.69,32.52,42.08,38.24,68.26c2.59,11.85,0.12,22.57-4.52,33.16   c-2.24,5.11-5.15,10.24-9.21,15.12C482.95,414.98,482.72,415.02,480.69,417.95z"/>
	<path class="st1" d="M453.79,119.94c0.15,0.74-0.31,1.05-0.65,1.39c-5.7,5.62-10.44,12.03-14.93,18.62   c-1.14,1.67-1.8,1.11-2.78,0.04c-5.41-5.97-10.44-12.26-15.17-18.78c-0.74-1.02-0.81-1.84-0.04-2.91   c4.44-6.21,8.95-12.36,14.18-17.95c1.4-1.5,2.39-1.92,3.95-0.07c5.05,5.95,10.05,11.93,14.58,18.29   C453.28,119.03,453.55,119.55,453.79,119.94z"/>
	<g class="st1">
		<path d="M-86.6,401.99c1.14,1.36,0.71,3.06,0.22,4.31c-7.98,20.51-17.29,40.16-36.81,52.56c-25.41,16.14-59.4,12.93-84.65-8.58    c-29.96-25.52-37.34-58.32-29.2-95.61c3.67-16.81,10.47-32.47,18.25-48.16c-1.54,18.41,10.93,27.8,23.15,37.13    c12.6,9.62,25.68,18.65,36.08,30.81c5.3,6.19,9.94,12.79,9.26,22.43c7.52-9.21,8.96-18.06,3.48-27.92    c-6.39-11.49-16.27-19.52-26.36-27.4c-7.46-5.82-15.08-11.42-22.02-17.9c-11.07-10.35-14.5-22.65-10.38-37.19    c1.91-6.73,3.31-13.63,8.63-21.02c-2.98,17.28,6.3,27.02,16.98,35.82c6.62,5.45,13.69,10.35,20.62,15.42    c5.53,4.05,10.62,8.53,15.16,13.69c10.81,12.31,13.64,26.26,9,41.84c-5.56,18.65-14.97,35.56-24.1,53.93    c-2.98-19.02-16.17-29.56-28.59-40.52c-6.59-5.82-13.81-10.92-20.69-16.42c-8.71-6.95-16.43-14.65-19.21-26.81    c-3.03,4.23-3.44,8.37-3.29,12.37c1.47,38.12,30.05,79.39,74.04,84.9c27.56,3.45,58.4-7.6,68.66-36.02    C-88.1,402.82-87.75,401.98-86.6,401.99z"/>
		<path d="M-53.49,262.67c1.26-9.09,2.04-18.2,0.27-27.31c-3.83-19.77-15.15-35.36-28.01-50.09    c-14.51-16.62-31.81-30.46-46.64-46.76c-11.14-12.24-21.82-24.82-28.24-40.37c-0.21-0.51-0.87-0.84-1.41-1.34    c-1.81,1.73-1.01,3.8-1.01,5.61c-0.04,49.99-0.48,99.99,0.29,149.97c0.21,13.73-6.02,23.23-14.76,34.42c0-3.62,0-5.68,0-7.74    c0-66.29,0.14-132.58-0.12-198.87c-0.05-12.58,8.03-20.05,15.05-30.08c0.93,9.13,1.28,16.76,2.56,24.23    c3.6,21.02,15.55,37.55,29.43,52.93c11.96,13.26,25.46,24.97,38.15,37.5c14.53,14.33,27.44,29.85,34.73,49.26    C-47.12,230.23-46.68,246.5-53.49,262.67z"/>
		<path d="M-95.54,391.65c3.49-5.81,6.2-9.8,8.38-14.06c6.57-12.83,4.96-25.09-3.26-36.63c-8.18-11.49-19.7-19.36-30.59-27.89    c-5.37-4.21-10.7-8.42-15.57-13.23c-9.36-9.26-12.88-20.19-9.88-33.09c1.77-7.61,3.39-15.3,9.13-23.77    c-2.52,17.07,6.35,26.64,16.75,35.11c8.68,7.08,18.16,13.19,26.73,20.39C-64.44,323.19-64.69,365.82-95.54,391.65z"/>
		<path d="M-114.97,200.67c-1.82,16.53,7.01,26.07,17.5,34.48c8.74,7.01,18.15,13.21,26.73,20.41    c12.18,10.21,21.34,22.4,20.17,39.47c-0.69,9.99-4.53,19.1-9.32,28.19c0.79-21.07-12.86-33.05-27.15-44.61    c-7.18-5.81-14.45-11.5-21.71-17.21c-14.62-11.51-19.43-26.06-13.67-43.9C-120.7,212.19-119.55,206.62-114.97,200.67z"/>
		<path d="M-267.54,147.65c-3.92-3.75-4.4-9.16-0.91-10.96c3.35-1.73,5.91-0.73,7.17,3.07c0.64,1.92-0.28,5.34,2.69,5.26    c3.4-0.08,2.05-3.71,2.82-5.78c0.12-0.32,0.63-0.5,1.01-0.77c1.9,0.84,1.04,2.64,1.29,3.98c0.46,2.47,1.91,3.43,4.21,2.98    c2.59-0.5,1.33-2.36,0.94-3.64c-1.53-4.89,1.61-6.01,5.2-6.02c3.61,0,6.64,1.25,5.46,6.03c-0.32,1.3-1.53,3.23,1.09,3.58    c2.36,0.32,3.04-1.42,3.11-3.32c0.13-3.53,1.35-6.24,5.32-6.04c3.56,0.18,4.67,2.81,4.68,6.03c0.01,1.93,0.38,3.55,2.83,3.52    c2.73-0.03,5.88-0.41,7.09-2.71c1.48-2.81-1.74-2.63-3.4-3.16c-1.03-0.33-2.37-0.33-1.86-1.94c0.41-1.31,1.83-1.55,2.72-1.13    c2.76,1.31,5.53,2.7,8,4.48c1.91,1.38,0.64,2.74-0.96,3.41c-3.82,1.61-7.45,3.72-11.86,3.67c-12.49-0.16-24.97-0.17-37.46-0.2    c-3.32-0.01-4.56-2.03-5.23-4.87c-0.4-1.69,0.4-4.95-2.61-4.18c-3.13,0.8-2.42,3.63-1.22,5.97    C-267.01,145.68-266.34,146.38-267.54,147.65z"/>
		<path d="M-328.9,178.54c-3.78-2.21-3.28-5.5-2.37-8.63c0.58-2.01,2.25-3.27,4.55-3.06c3.71,0.33,4.42,3,4.7,6.07    c0.26,2.8,2.14,3.46,4.65,3.45c15.64-0.05,31.28-0.28,46.9,0.07c5.45,0.12,4.31-4.26,5.64-6.89c2.28,0.54,1.66,2.15,1.84,3.28    c0.26,1.61,0.55,3.22,2.55,3.21c2.33-0.01,1.86-1.99,2.03-3.42c0.4-3.46,1.83-6.12,5.74-5.76c3.69,0.34,4.15,3.27,4.24,6.35    c0.13,4.24-2.17,6.12-6.03,6.16c-11.37,0.1-22.74,0.03-34.11,0.04c-9.47,0-18.94-0.02-28.41,0.02c-3.89,0.02-7-0.94-7.74-5.41    c-0.29-1.77,0.34-4.81-2.67-4.07c-2.81,0.69-2.09,3.4-1.28,5.53C-328.35,176.26-327.6,176.9-328.9,178.54z"/>
		<path d="M-243.13,162.2c1.68,3.63,0.93,6.31,1.15,8.9c0.16,1.89-0.51,4.48,2.14,4.88c3.19,0.48,2.28-2.46,2.68-4.16    c0.65-2.83,2.01-5.12,5.19-4.98c3.14,0.14,4.45,2.36,4.66,5.37c0.12,1.63-0.4,3.87,2.31,3.89c2.41,0.02,2.56-1.91,2.82-3.7    c0.14-0.96-0.18-2.22,1.24-2.64c1.45,0.43,1.1,1.7,1.25,2.69c0.24,1.51,0.17,3.42,2.25,3.44c2.53,0.02,2.26-2.13,2.41-3.85    c0.26-2.96-0.54-6.04,1.54-8.93c1.87,4.23,2.2,8.65,0.54,13.03c-1.47,3.88-4.84,2.18-7.79,2.53c-4.83,0.57-9.62,0.74-14.44,0.75    c-8.52,0.01-9.47-0.94-9.44-9.48C-244.61,167.66-245.03,165.26-243.13,162.2z"/>
		<path d="M-312.68,138.22c2.31,4.02,3.31,8.06-1.87,9.6c-3.9,1.16-7.46,0.26-8.58-4.61c-0.39-1.67,0.49-4.97-2.52-4.19    c-3.12,0.82-2.32,3.63-0.96,5.89c0.48,0.8,0.83,1.54-0.35,2.64c-4-1.33-3.5-4.72-3.14-7.83c0.29-2.53,2.21-3.91,4.56-3.93    c3.44-0.03,5.09,2.08,5.21,5.47c0.08,2.49,0.92,4.34,3.85,4.17c2.63-0.16,3.01-2.05,3.17-4.17    C-313.24,140.24-312.9,139.24-312.68,138.22z"/>
		<path d="M-305.78,147.21c-2.07-5.25-1.83-10.46-0.02-15.66C-303.75,136.76-303.8,141.98-305.78,147.21z"/>
		<path d="M-206.75,163.14c1.59,5.12,2.02,10.23-0.21,15.27C-208.57,173.32-208.54,168.23-206.75,163.14z"/>
		<path d="M-295.02,138.42c4.89,5.82,3.44,13.78-2.11,15.34c-1.25,0.35-2.87,0.79-3.54-0.57c-0.92-1.87,0.96-1.69,2.03-2.25    C-294.48,148.78-294.43,148.44-295.02,138.42z"/>
		<path d="M-289.44,146.96c6.52-1.27,7.43-4.27,3.61-9.53c3.65,1.11,5.58,3.13,5.3,6.66C-280.8,147.38-283.3,148.33-289.44,146.96z"/>
	</g>
	<path class="st1" d="M964.81,696.37c-4.6-4.25-8.04-7.09-11.09-10.3c-9.18-9.69-11.02-21.01-6.89-33.43   c4.12-12.36,12.13-22.38,19.4-32.82c3.59-5.15,7.14-10.3,10.13-15.85c5.75-10.69,5.92-21.33-0.14-32.02   c-3.58-6.31-7.04-12.72-14.33-18.74c6.75,14.52,1.52,25.35-5.34,35.62c-5.73,8.57-12.42,16.49-18.01,25.14   C919.34,643.65,930.9,681.49,964.81,696.37z"/>
	<path class="st1" d="M493.44,423.5c-1.2,1.51-3.14,3.96-6.43,7.13C466.61,450.22,442,456,442,456c-8.36,1.96-23.77,4.33-42,0   c-28.98-6.89-54.96-28.29-63-52c-2.05-6.05-4.58-17.1-5.92-28.73c-0.91-7.89-1.1-14.54-1.08-19.27c-2.62,9.42-6.41,27.94-1.65,50.3   c2.19,10.31,6.68,30.08,23.65,46.7c18.16,17.78,39.77,21.32,51,23c12.72,1.9,52.56,7.87,80-20c21.62-21.96,22-51.17,21.86-58.97   C502.91,403.52,500.53,414.6,493.44,423.5z"/>
	<path class="st1" d="M282.39-78.42c-1.46,2.7-3.05,5.18-4.72,7.47c-8.92,12.72-22.96,22.09-37.99,26.78   c-42.32,13.2-85.43-12.52-102.56-46.6c-0.68-1.36-1.3-2.76-1.74-4.27c-1.99-5.69-4.51-14.21-5.88-24.76   c-0.99-7.66-1.11-14.32-0.96-19.38c-0.08-0.2-0.16-0.4-0.23-0.6c-0.58,17.5-0.29,34.57,3.34,51.39   c8.04,37.31,28.34,64.11,66.19,74.92c31.9,9.12,64.16-2.05,80.6-27.26c12.51-19.19,12.96-40.71,11.77-62.47   C289.43-96.58,287.43-87.71,282.39-78.42z"/>
	<path class="st1" d="M333.6-198.78c-4.74-4.34-8.29-7.24-11.42-10.52c-9.45-9.9-11.32-21.49-7.02-34.23   c4.28-12.67,12.58-22.96,20.13-33.67c3.72-5.28,7.4-10.57,10.5-16.26c5.96-10.96,6.17-21.87-0.06-32.8   c-3.68-6.45-7.23-13.01-14.74-19.16c6.93,14.85,1.5,25.97-5.62,36.5c-5.94,8.8-12.87,16.93-18.67,25.8   C286.78-252.66,298.61-213.93,333.6-198.78z"/>
	<path class="st1" d="M285.22-246.8c-4.74-4.34-8.29-7.24-11.42-10.52c-9.45-9.9-11.32-21.49-7.02-34.23   c4.28-12.67,12.58-22.96,20.13-33.67c3.72-5.28,7.4-10.57,10.5-16.26c5.96-10.96,6.17-21.87-0.06-32.8   c-3.68-6.45-7.23-13.01-14.74-19.16c6.93,14.85,1.5,25.97-5.62,36.5c-5.94,8.8-12.87,16.93-18.67,25.8   C238.4-300.68,250.23-261.95,285.22-246.8z"/>
	<g class="st1">
		<g>
			<path d="M1123.97,591.53c-1.76-6.22-3.53-12.44-5.29-18.66c0.21,0.95,0.36,1.9,0.45,2.87c0.16,1.31,0.25,2.6,0.25,3.92     c-0.01,2.4-0.25,4.81-0.82,7.15c-0.58,2.37-1.52,4.57-2.72,6.69c-4.47,7.94-10.32,15.22-15.51,22.7     c-7.34,10.57-13.67,20.39-14.9,33.62c-1.17,12.57,3.5,25.06,7.05,36.89c2.49,8.3,5.4,16.02,10.88,22.84     c3.7,4.61,8.12,8.48,12.91,11.92c7.99,5.74,16.8,7.72,26.53,8.03c21.18,0.68,42.11-7.56,57.06-22.55c1-1-3.03-11.56-3.46-13.05     c-0.88-3.06-1.77-6.11-2.71-9.15c-0.13-0.42-1.38-3.64-1.27-3.75c-13.13,13.17-30.82,21.13-49.37,22.41     c-8.94,0.62-19.21,0.2-27.42-3.73c-5.97-2.85-11.56-7.32-16.17-12.07c-2.23-2.29-4.26-4.77-6.06-7.41     c-1.11-1.63-2.13-3.32-3.04-5.08c-0.57-1.11-1.07-2.23-1.57-3.38c-4.06-9.19,5.7,26.92,4.14,13.41     c-0.97-8.43,0.65-16.95,3.78-24.78c5.08-12.67,15-23.68,22.64-34.82c4.32-6.3,7.45-12.07,7.46-19.94     c0.01-5.23-1.35-10.23-2.71-15.24c-2.17-8.01-4.31-16.11-7.17-23.91c-0.6-1.64,0.35,2.16,0.18,1.37c0.56,2.61,1.38,5.22,2.1,7.79     C1120.7,580.92,1122.07,586.34,1123.97,591.53L1123.97,591.53z"/>
		</g>
	</g>
	<g class="st1">
		<g>
			<path d="M1108.29,532c1.84,11.01,0.03,22.3-6.62,31.39c-7.26,9.91-15.15,19.18-21.8,29.58c-6.8,10.63-9.82,22.31-8.58,34.98     c1.43,14.63,6.5,29.59,11.2,43.4c3.99,11.72,10.51,22.29,19.19,31.12c-0.3-0.3-0.92-3.92-0.91-3.85     c-0.81-3.08-1.68-6.14-2.56-9.2c-0.88-3.06-1.77-6.11-2.71-9.15c-0.31-0.99-0.56-3.02-1.27-3.75c-3.53-3.59-6.76-7.46-9.59-11.63     c-1.86-2.75-3.56-5.62-5.06-8.59c-1.13-2.23-2.05-4.53-3.01-6.83c-2.79-6.72,2.2,5.63,3.51,12.66     c-2.59-13.83-2.07-27.49,5.18-39.88c6.81-11.65,15.55-21.73,23.56-32.5c7.1-9.56,8.73-21.16,6.79-32.75     c-0.9-5.4-2.86-10.77-4.4-16.02c-0.75-2.57-1.43-5.2-2.34-7.72C1108.78,533.01,1108.08,530.71,1108.29,532L1108.29,532z"/>
		</g>
	</g>
	<g class="st1">
		<g>
			<path d="M1095.91,507.24c1.84,11.01,0.03,22.3-6.62,31.39c-7.26,9.91-15.15,19.18-21.8,29.58c-6.8,10.63-9.82,22.31-8.58,34.98     c1.43,14.63,6.5,29.59,11.2,43.4c3.99,11.72,10.51,22.29,19.19,31.12c-0.3-0.3-0.92-3.92-0.91-3.85     c-0.81-3.08-1.68-6.14-2.56-9.2c-0.88-3.06-1.77-6.11-2.71-9.15c-0.31-0.99-0.56-3.02-1.27-3.75c-3.53-3.59-6.76-7.46-9.59-11.63     c-1.86-2.75-3.56-5.62-5.06-8.59c-1.13-2.23-2.05-4.53-3.01-6.83c-2.79-6.72,2.2,5.63,3.51,12.66     c-2.59-13.83-2.07-27.49,5.18-39.88c6.81-11.65,15.55-21.73,23.56-32.5c7.1-9.56,8.73-21.16,6.79-32.75     c-0.9-5.4-2.86-10.77-4.4-16.02c-0.75-2.57-1.43-5.2-2.34-7.72C1096.4,508.25,1095.69,505.95,1095.91,507.24L1095.91,507.24z"/>
		</g>
	</g>
	<g class="st1">
		<g>
			<path d="M1061.91,483.24c1.84,11.01,0.03,22.3-6.62,31.39c-7.26,9.91-15.15,19.18-21.8,29.58c-6.8,10.63-9.82,22.31-8.58,34.98     c1.43,14.63,6.5,29.59,11.2,43.4c3.99,11.72,10.51,22.29,19.19,31.12c-0.3-0.3-0.92-3.92-0.91-3.85     c-0.81-3.08-1.68-6.14-2.56-9.2c-0.88-3.06-1.77-6.11-2.71-9.15c-0.31-0.99-0.56-3.02-1.27-3.75c-3.53-3.59-6.76-7.46-9.59-11.63     c-1.86-2.75-3.56-5.62-5.06-8.59c-1.13-2.23-2.05-4.53-3.01-6.83c-2.79-6.72,2.2,5.63,3.51,12.66     c-2.59-13.83-2.07-27.49,5.18-39.88c6.81-11.65,15.55-21.73,23.56-32.5c7.1-9.56,8.73-21.16,6.79-32.75     c-0.9-5.4-2.86-10.77-4.4-16.02c-0.75-2.57-1.43-5.2-2.34-7.72C1062.4,484.25,1061.69,481.95,1061.91,483.24L1061.91,483.24z"/>
		</g>
	</g>
	<g class="st1">
		<g>
			<path d="M1027.78,50.52c0.96,10.44,0.39,21.11-3.59,30.92c-3.36,8.28-8.95,14.12-15.39,20.08     c-15.71,14.54-19.2,37.87-16.01,58.23c1.95,12.46,6.1,24.78,9.95,36.75c2.99,9.27,6.9,18.82,15.66,24.04     c12.51,7.45,29.55,4.81,42.58,0.01c16.35-6.02,29.11-19.39,36.24-35.09c0.24-0.53-0.89-3.81-0.91-3.85     c-0.81-3.08-1.68-6.14-2.56-9.2c-0.88-3.06-1.77-6.11-2.71-9.15c-0.19-0.61-1.47-3.32-1.27-3.75     c-10.98,24.19-35.2,40.51-62.06,39.54c-8.12-0.29-16.23-2.73-22.07-8.62c-3.44-3.47-5.83-7.85-7.63-12.35     c-2.86-7.17-0.62-7.57,3.01,11.58c-0.52-2.74-1.06-5.45-1.36-8.23c-2.01-18.64,1.63-39.77,15.69-53.14     c6.68-6.35,12.72-12.16,16.27-20.9c3.98-9.81,4.55-20.48,3.59-30.92c-0.4-4.33-2.27-8.89-3.46-13.05     C1030.6,59.39,1028.16,54.68,1027.78,50.52L1027.78,50.52z"/>
		</g>
	</g>
	<g class="st1">
		<g>
			<path d="M1009.78,27.52c2.02,15.63-0.67,31.86-10.8,44.31c-7.66,9.42-14.63,18.4-18.52,30.06c-4.83,14.5-5.96,30.29-2.67,45.26     c4.42,20.12,11.31,39.2,20.36,57.65c3.28,6.69,6.97,13.87,13.07,18.44c6.99,5.23,15.86,5.5,24,3.23     c0.32-0.09-6.98-26.08-7.44-25.95c-12.94,3.61-24.22-0.54-31.54-11.65c-3.96-6.02-6.87-12.72-9.87-19.24     c-1.78-3.86-3.49-7.74-5.1-11.68c-3.59-8.81,5.35,22.58,3.33,11.67c-0.52-2.8-0.86-5.62-1.05-8.46     c-0.85-12.46,1.15-25.16,5.61-36.82c3.92-10.25,10.44-18.16,17.26-26.56c10.12-12.45,12.82-28.68,10.8-44.31     c-0.57-4.38-2.25-8.82-3.46-13.05C1012.58,36.3,1010.33,31.76,1009.78,27.52L1009.78,27.52z"/>
		</g>
	</g>
	<g class="st1">
		<g>
			<path d="M989.84,5.01c2.49,17.32-1.95,33.29-12.94,46.78c-10.37,12.73-18.02,25.68-20.98,42.08     c-2.83,15.63-1.62,31.59,2.27,46.93c4.79,18.88,9.67,38.43,21.28,54.42c9.64,13.28,22.77,23.64,37.76,30.27     c-0.09-0.04-1.04-4.36-0.91-3.85c-0.81-3.08-1.68-6.14-2.56-9.2c-0.88-3.06-1.77-6.11-2.71-9.15c-0.2-0.65-0.7-3.5-1.27-3.75     c-12.29-5.43-23.39-13.34-32.29-23.43c-4.12-4.68-7.78-9.78-10.88-15.19c-1.9-3.33-3.57-6.77-4.98-10.34     c-0.25-0.62-0.48-1.26-0.72-1.88c-2.69-6.86,4,15.38,3.62,13.07c-0.31-1.92-0.83-3.81-1.17-5.73     c-2.57-14.64-2.12-30.03,1.87-44.37c3.93-14.13,11.84-24.6,20.73-35.9c10.4-13.23,13.58-29.23,11.2-45.75     c-0.77-5.38-2.87-10.81-4.4-16.02c-0.75-2.57-1.43-5.2-2.34-7.72C990.33,6.01,989.66,3.72,989.84,5.01L989.84,5.01z"/>
		</g>
	</g>
	<g class="st1">
		<g>
			<path d="M966.4-23.99c-1.18-4.28-0.26-0.8-0.04,0.33c0.32,1.65,0.59,3.3,0.78,4.96c0.29,2.51,0.42,5.04,0.4,7.57     c-0.05,5.54-0.86,11.1-2.55,16.39c-2.41,7.53-7.01,13.55-11.51,19.91c-12.21,17.23-16.58,36.61-19.06,57.24     c-2.32,19.3-1.26,38.28,3.28,57.2c5.5,22.96,11.52,47.37,28.77,64.55c11.69,11.65,26.84,19.33,42.76,23.32     c-0.79-0.2-3.09-11.77-3.46-13.05c-0.88-3.06-1.77-6.11-2.71-9.15c-0.17-0.54-0.8-3.63-1.27-3.75     c-12.59-3.16-24.65-8.59-34.98-16.51c-7.36-5.65-13.72-12.56-18.66-20.42c-2.89-4.6-4.98-9.43-7.08-14.42     c-3.13-7.45,4.04,15.28,3.67,13.21c-0.22-1.22-0.56-2.42-0.81-3.64c-0.46-2.21-0.86-4.43-1.24-6.65     c-3.24-18.73-2.1-37.01,0.61-55.7c1.52-10.48,4.06-20.7,8.41-30.39c3.36-7.48,7.93-14.02,12.67-20.66     c5.31-7.43,8.89-15.23,10.11-24.38c1.51-11.32-0.9-22.13-3.88-32.99c-1.62-5.91-3.1-11.96-5.18-17.73     c-0.29-0.81-0.25-1.97-0.58-1.25C964.38-28.98,966.18-24.79,966.4-23.99L966.4-23.99z"/>
		</g>
	</g>
	<g class="st1">
		<g>
			<path d="M426.4,329.69c1.71,13.31-1.47,24.97-9.82,35.33c-4.39,5.44-8.3,11.2-12.07,17.08c-2.89,4.51-6.16,9.41-6.93,14.83     c-0.92,6.45,2.08,13.54,3.82,19.55c1.76,6.08,3.21,12.23,7.16,17.3c5.38,6.89,13.24,11.82,21.04,15.55     c-0.08-0.04-0.86-3.62-0.76-3.21c-0.67-2.56-1.4-5.12-2.13-7.66c-0.73-2.55-1.47-5.1-2.26-7.63c-0.18-0.56-0.57-2.89-1.06-3.12     c-6.15-2.94-12.11-6.59-17.09-11.27c-1.69-1.59-3.29-3.31-4.65-5.2c-0.68-0.94-1.24-1.91-1.84-2.9c-1.92-4.18-1.41-2.1,1.52,6.24     c1.81,8.38,2.57,10.64,2.26,6.76c0.62-4.09,1.21-7.3,3.19-11.05c5.2-9.85,12.29-18.39,18.89-27.27     c6.76-9.1,8.34-20.66,6.92-31.67c-0.47-3.65-1.87-7.35-2.88-10.88C428.73,337,426.85,333.21,426.4,329.69L426.4,329.69z"/>
		</g>
	</g>
	<g class="st1">
		<g>
			<path d="M407.45,304.09c2.06,14.9-0.57,29.16-10.06,41.04c-9.19,11.51-19.55,23.71-22.52,38.64c-1.6,8.03,1.25,15.97,3.44,23.61     c2.06,7.18,3.89,14.52,7.96,20.88c5.54,8.66,13.72,15.57,22.33,21.06c-0.14-0.09-0.84-3.54-0.76-3.21     c-0.67-2.56-1.4-5.12-2.13-7.66c-0.73-2.55-1.47-5.1-2.26-7.63c-0.2-0.65-0.52-2.78-1.06-3.12     c-7.28-4.64-14.11-10.26-19.47-17.06c-1.78-2.26-3.41-4.66-4.73-7.21c-0.7-1.36-1.23-2.77-1.84-4.17     c4.1,16.88,5.55,21.53,4.35,13.94c-0.08-0.85-0.13-1.71-0.13-2.56c-0.02-6.65,2.82-12.58,5.62-18.45     c3.09-6.48,6.76-12.5,11.28-18.08c3.47-4.28,7.29-8.31,10.18-13.03c6.68-10.94,7.61-23.7,5.89-36.14     c-0.62-4.48-2.39-9.01-3.66-13.35c-0.63-2.13-1.14-4.36-1.95-6.43C407.85,304.92,407.3,303.02,407.45,304.09L407.45,304.09z"/>
		</g>
	</g>
	<g class="st1">
		<g>
			<path d="M394.4,281.69c-1.53,15.77-6.78,30.94-15.62,44.12c-5.32,7.93-12.21,14.35-16.48,23c-5.99,12.13-7.33,25.71-4.11,38.81     c3.45,14.06,7,28.97,15.78,40.79c4.54,6.12,10.19,11.76,16.63,15.9c-0.14-0.09-0.84-3.53-0.76-3.21     c-0.67-2.56-1.4-5.12-2.13-7.66c-0.73-2.55-1.47-5.1-2.26-7.63c-0.2-0.65-0.52-2.77-1.06-3.12c-6.28-4.04-11.81-9.53-16.29-15.46     c-1.88-2.48-3.58-5.1-5.07-7.84c-0.94-1.72-1.78-3.49-2.53-5.31c-4.13-10.11,4.02,19.28,2.93,10.54     c-1.09-8.75-1.02-17.05,1.61-25.57c3.48-11.23,10.37-18.59,17.16-27.7c10.45-14.03,16.69-30.65,18.38-48.04     c0.3-3.13-2.03-7.88-2.88-10.88c-0.73-2.55-1.47-5.1-2.26-7.63C395.22,284.04,394.33,282.42,394.4,281.69L394.4,281.69z"/>
		</g>
	</g>
	<g class="st1">
		<g>
			<path d="M381.4,233.69c-1.07,16.39-5.32,33.34-14.37,47.21c-6.64,10.17-14.58,19.12-20.24,29.99     c-6.76,12.98-11.49,27.31-12.01,42.01c-0.31,8.74,1.21,17.09,3.5,25.48c2.56,9.37,4.93,19.08,9.11,27.89     c20.03,42.24,74.97,54.03,115.05,34.66c28.97-14.01,46.01-46.19,40.12-78.02c-1.23-6.63-5.14-15.67-6.1-20.82     c4.94,26.67-6.95,54.43-28.72,70.33c-17.03,12.44-39.19,17.02-60,15.67c-20.11-1.3-39.4-9.68-53.37-24.34     c-4.15-4.35-7.79-9.2-10.76-14.43c-0.97-1.7-1.85-3.44-2.66-5.21c-0.53-1.15-0.96-2.34-1.48-3.48     c-1.79-3.94,2.93,11.41,2.82,10.16c-0.43-4.92-1.41-9.64-1.34-14.63c0.19-14.01,4.3-27.75,10.37-40.3     c5.53-11.43,13.23-20.92,20.5-31.24c10.03-14.25,14.68-32.08,15.8-49.3c0.21-3.24-2-7.78-2.88-10.88     c-0.73-2.55-1.47-5.1-2.26-7.63C382.21,236.01,381.35,234.46,381.4,233.69L381.4,233.69z"/>
		</g>
	</g>
</g>
<g>
	<path class="st2" d="M133.56,291.41c0,12.4-9.36,21.53-21.06,21.53c-11.93,0-21.29-9.13-21.29-20.83c0-6.79,3.04-12.64,7.72-16.38   c-1.17-0.47-4.45-1.64-8.89-1.64c-16.61,0-30.66,17.78-30.66,43.76c0,25.74,13.81,43.53,35.34,43.53   c22.46,0,36.27-18.49,38.61-26.68h4.91c-6.32,25.74-21.76,50.78-55.93,50.78c-31.83,0-61.78-22.23-61.78-61.08   c0-36.51,26.21-65.05,65.29-65.05C113.2,259.35,133.56,273.62,133.56,291.41z"/>
	<path class="st2" d="M260.15,299.6c0,26.44-22.7,46.33-53.59,46.33c-6.32,0-12.87-0.94-19.66-2.57   c5.85,11.47,16.15,18.02,29.48,18.02c22.46,0,36.27-18.49,38.61-26.68h4.91c-7.49,30.42-27.38,50.78-58.5,50.78   c-34.17,0-59.2-24.1-59.2-61.08c0-38.85,27.38-65.05,68.1-65.05C244.94,259.35,260.15,278.3,260.15,299.6z M209.14,274.09   c-14.04,0-28.08,17.78-28.08,43.76c0,6.55,0.94,12.64,2.34,18.02C232.54,321.83,231.6,274.09,209.14,274.09z"/>
	<path class="st2" d="M353.05,305.22c0-17.08-6.55-27.38-18.25-27.38c-11,0-18.95,10.06-20.59,25.51v58.27   c0,5.62,3.28,11.47,7.49,14.98l2.34,1.64v4.91h-58.27v-4.91l2.11-1.64c4.68-3.51,7.72-9.36,7.72-14.98v-70.9   c0-5.62-3.04-11.7-7.72-14.98l-2.11-1.64v-4.91l38.85-7.25h9.59v18.49c8.42-13.1,22.46-21.06,39.08-21.06   c25.04,0,38.61,17.55,38.61,43.53v60.61c0,6.08,1.87,8.42,6.55,8.42c0,0,3.51,0,5.62-3.28c0,5.85-8.66,16.85-26.21,16.85   c-15.44,0-24.8-8.42-24.8-26.91V305.22z"/>
	<path class="st2" d="M493.68,305.22c0-17.08-6.55-27.38-18.25-27.38c-11,0-18.96,10.06-20.59,25.51v58.27   c0,5.62,3.28,11.47,7.49,14.98l2.34,1.64v4.91H406.4v-4.91l2.11-1.64c4.68-3.51,7.72-9.36,7.72-14.98v-70.9   c0-5.62-3.04-11.7-7.72-14.98l-2.11-1.64v-4.91l38.85-7.25h9.59v18.49c8.42-13.1,22.46-21.06,39.08-21.06   c25.04,0,38.61,17.55,38.61,43.53v60.61c0,6.08,1.87,8.42,6.55,8.42c0,0,3.51,0,5.62-3.28c0,5.85-8.66,16.85-26.21,16.85   c-15.45,0-24.81-8.42-24.81-26.91V305.22z"/>
	<path class="st2" d="M605.3,378.23v4.91h-58.27v-4.91l2.11-1.64c4.68-3.51,7.72-9.36,7.72-14.98v-70.9c0-5.62-3.04-11.7-7.72-14.98   l-2.11-1.64v-4.91l38.85-7.25h9.59v99.69c0,5.62,3.28,11.47,7.49,14.98L605.3,378.23z M576.05,210.91   c12.4,0,22.46,10.3,22.46,22.46s-10.06,22.23-22.46,22.23c-12.17,0-22.23-10.06-22.23-22.23S563.88,210.91,576.05,210.91z"/>
	<path class="st2" d="M719.73,304.98v58.5c0,6.08,1.87,8.42,6.55,8.42c0,0,3.51,0,5.38-3.28c0,5.85-8.42,16.85-25.98,16.85   c-12.64,0-21.53-5.85-24.1-17.78c-7.72,11.7-20.36,17.78-34.4,17.78c-21.53,0-38.14-14.04-38.14-35.1   c0-43.06,68.56-38.38,70.2-57.8c-4.68-15.44-17.08-20.59-25.27-20.59c-3.28,0-5.62,0.7-6.79,1.64c3.98,3.28,6.79,8.42,6.79,14.27   c0,9.83-8.19,18.02-18.49,18.02c-10.3,0-18.49-8.19-18.49-18.96c0-16.15,17.55-27.61,47.04-27.61   C690.24,259.35,719.73,268.48,719.73,304.98z M680.88,309.9c-11.7,8.42-33,12.4-33,32.53c0,11.7,7.25,18.96,14.74,18.96   c8.42,0,16.85-9.13,18.25-22.93V309.9z"/>
	<path class="st2" d="M791.56,378.23v4.91h-58.27v-4.91l2.11-1.64c4.68-3.51,7.72-9.36,7.72-14.98V242.27   c0-5.62-3.04-11.7-7.72-14.98l-2.11-1.87v-4.68l38.85-7.25h9.59v148.13c0,5.62,3.28,11.47,7.49,14.98L791.56,378.23z"/>
</g>
<g>
	<path class="st2" d="M105.83,23.6c50.55,0,84.71,35.8,84.71,88.22c0,45.16-24.81,76.52-63.65,84.48   c14.51,3.98,29.25,10.53,43.29,10.53c3.04,0,5.85-0.23,8.66-0.94c6.08-1.64,8.19-3.74,12.4-10.53l3.98,2.34   c1.64,13.34-1.4,35.8-23.64,40.72c-2.81,0.7-5.85,0.94-8.66,0.94c-20.36,0-40.48-14.27-63.65-14.27c-3.74,0-7.49,0.23-11.47,1.17   c-3.28,0.94-8.89,2.57-11.93,6.55l-4.21-2.57c1.4-5.38,2.57-24.57,18.02-33.46c-41.19-6.55-68.8-38.61-68.8-85.65   C20.89,58.46,55.52,23.6,105.83,23.6z M105.6,183.66c27.85,0,46.33-29.25,46.33-73.48c0-43.76-18.02-72.07-45.16-72.07   c-27.85,0-47.04,29.25-47.04,73.71C59.73,155.34,77.99,183.66,105.6,183.66z"/>
	<path class="st2" d="M328.14,184.59c0,0,3.51,0,5.62-3.28c0,5.85-8.66,16.85-26.21,16.85c-13.81,0-22.93-6.79-24.57-21.06   c-8.19,13.1-22.23,21.06-39.31,21.06c-24.8,0-38.38-17.32-38.38-43.29v-51.48c0-5.62-3.04-11.7-7.72-14.98l-2.11-1.64v-4.91   l38.85-7.25h9.59v77.69c0,17.32,6.55,27.61,18.25,27.61c11,0,18.95-9.59,20.59-24.81v-53.59c-0.7-5.15-3.28-10.3-7.49-13.1   l-2.11-1.64v-4.91l38.61-7.25h9.83V176.4C321.58,182.25,323.46,184.59,328.14,184.59z"/>
	<path class="st2" d="M394.82,190.91v4.91h-58.27v-4.91l2.11-1.64c4.68-3.51,7.72-9.36,7.72-14.98v-70.9   c0-5.62-3.04-11.7-7.72-14.98l-2.11-1.64v-4.91l38.85-7.25h9.59v99.69c0,5.62,3.28,11.47,7.49,14.98L394.82,190.91z M365.57,23.6   c12.4,0,22.46,10.3,22.46,22.46s-10.06,22.23-22.46,22.23c-12.17,0-22.23-10.06-22.23-22.23S353.4,23.6,365.57,23.6z"/>
	<path class="st2" d="M485.85,117.9c0-17.08-6.55-27.38-18.25-27.38c-11,0-18.96,10.06-20.59,25.51v58.27   c0,5.62,3.28,11.47,7.49,14.98l2.34,1.64v4.91h-58.27v-4.91l2.11-1.64c4.68-3.51,7.72-9.36,7.72-14.98v-70.9   c0-5.62-3.04-11.7-7.72-14.98l-2.11-1.64v-4.91l38.84-7.25H447V93.1c8.42-13.1,22.46-21.06,39.08-21.06   c25.04,0,38.61,17.55,38.61,43.53v60.61c0,6.08,1.87,8.42,6.55,8.42c0,0,3.51,0,5.62-3.28c0,5.85-8.66,16.85-26.21,16.85   c-15.44,0-24.8-8.42-24.8-26.91V117.9z"/>
	<path class="st2" d="M615.96,38.11v-4.68l38.61-7.25h9.83v150c0,6.08,1.87,8.42,6.55,8.42c0,0,3.51,0,5.62-3.28   c0,5.85-8.66,16.85-26.21,16.85c-11.7,0-19.89-4.68-23.4-15.21c-7.25,9.59-17.78,15.21-33.46,15.21   c-32.76,0-55.23-25.04-55.23-62.48c0-38.14,23.4-63.65,57.57-63.65c13.57,0,22.93,4.21,29.72,11V54.95c0-5.62-2.81-11.7-7.49-14.98   L615.96,38.11z M625.55,141.77v-13.1c-1.4-25.74-11.23-41.89-25.04-41.89c-14.98,0-23.4,19.42-23.4,47.74   c0,30.19,9.59,49.14,23.87,49.14C614.55,183.66,624.15,167.28,625.55,141.77z"/>
	<path class="st2" d="M795.9,112.29c0,26.44-22.7,46.33-53.59,46.33c-6.32,0-12.87-0.94-19.66-2.57   c5.85,11.47,16.15,18.02,29.49,18.02c22.46,0,36.27-18.49,38.61-26.68h4.91c-7.49,30.42-27.38,50.78-58.5,50.78   c-34.17,0-59.2-24.1-59.2-61.08c0-38.85,27.38-65.05,68.1-65.05C780.69,72.04,795.9,90.99,795.9,112.29z M744.89,86.78   c-14.04,0-28.08,17.78-28.08,43.76c0,6.55,0.94,12.64,2.34,18.02C768.29,134.52,767.36,86.78,744.89,86.78z"/>
</g>
</svg>