<?xml version="1.0" encoding="utf-8"?>
<!-- Generator: Adobe Illustrator 27.3.1, SVG Export Plug-In . SVG Version: 6.00 Build 0)  -->
<svg version="1.1" id="Layer_1" xmlns="http://www.w3.org/2000/svg" xmlns:xlink="http://www.w3.org/1999/xlink" x="0px" y="0px"
	 viewBox="0 0 1080 1080" style="enable-background:new 0 0 1080 1080;" xml:space="preserve">
<style type="text/css">
	.st0{fill:#5A4941;}
	.st1{fill:#A87C4E;}
	.st2{font-family:'Montserrat-Bold';}
	.st3{font-size:109.9826px;}
	.st4{font-size:40.4803px;}
</style>
<g>
	<path class="st0" d="M575.69,273.2c0.5-0.95,1.02-1.87,1.52-2.81c2.84-2.94,6.75-4.94,8.04-9.22l-0.05,0.05
		c0.84-0.21,1.94,0.16,2.34-1.05c8.91-5.41,18.6-8.8,28.79-10.8c3.34,0.89,7.25-1.39,10.19,1.79
		c-0.08,86.62-0.16,173.24-0.24,259.86v0.18c0.03,0.55,0.05,1.08,0.05,1.63c-1.37,2.63-0.68,5.41-0.63,8.14
		c-1.21,2.57-1.66,5.25-1.08,8.09c-1.97,6.49-2.29,13.27-3.47,19.91c-5.54,30.9-17.63,59.03-35.26,84.81
		c-3.13,4.55-3.31,6.86,1.89,8.85c0.53,0.32,1.02,0.63,1.55,0.95c12.32,10.11,26.64,16.11,41.75,20.65
		c7.22,2.15,14.37,4.49,21.86,5.7c3.91,0.63,5.54-0.53,5.41-4.73c-0.32-10.38-0.26-20.76-0.37-31.13c1.68-3.36,1.66-6.75,0-10.11
		c0.08-1.66,0.13-3.31,0.21-4.97c1.55-2.29,0.95-4.68,0.39-7.07c0.37-8.88,3.07-17.13,9.09-23.57c7.3-7.8,15.58-13.92,27.06-15.76
		c7.46-1.18,14.34,1.73,21.46,0.37c3.31-0.63,4.23,0.6,4.12,3.97c-0.92,30.11,1.1,60.27-1.18,90.38c-0.37,4.68,1.39,5.99,5.83,5.91
		c9.98-0.18,19.97-1.1,29.95,0.24c4.02,0.53,4.81-1.68,4.81-5.18c-0.11-16.71-0.13-33.45,0.03-50.15c0.05-4.33-0.6-8.75,0.63-13.08
		c3.02-10.72,9.46-19,17.94-25.88c3.07-1.58,6.15-3.13,9.22-4.7c0.79-0.37,1.58-0.74,2.34-1.1c3.05-0.45,6.2-0.29,9.09-1.68
		c1.92,0,3.86-0.03,5.78-0.03c4.23,0.03,8.49,0.05,12.72,0.08c2.97,0.37,4.15,1.89,3.84,4.97c-0.26,2.57,0.05,5.23,0.11,7.86
		c0.05,25.01,0.11,50.05,0.16,75.06c-1.02,16.76-2.26,13.24,12.16,13.4c1.5,0.03,3.02-0.37,4.52-0.55
		c6.17,0.39,12.32,0.74,18.5,0.03c4.1,1,4.39-1.5,4.36-4.55c-0.26-22.02-0.45-44.01,0.39-66c1.79-1.05,0.71-3.44,2.21-4.65
		c1.71-2.73,3.39-5.46,5.1-8.2c2.39-2.55,4.78-5.1,7.17-7.62c1.71-1.23,3.42-2.47,5.1-3.7c7.99-3.63,16.16-6.54,25.14-5.86
		c3.94,0.29,7.78,1.79,11.8,0.92c1.5,0.08,3.02,0.16,4.52,0.24c0.05,31.16,0.13,62.34,0.18,93.5c0.47,2.47-2.63,6.75,2.94,6.73
		c16.74-0.13,33.44-0.53,50.18-0.79c2.31,0.47,4.62,0.47,6.94,0c2.1,0.18,4.23,0.24,6.28,0.63c5.36,1.02,7.22-1.23,6.52-6.41
		c-1.44-10.33-2.68-20.65-4.49-30.92c-4.91-27.74-12.9-54.28-25.14-79.76c-9.01-18.76-18.42-37.15-30.56-54.12
		c-17-23.72-35.02-46.4-57.25-65.76c-10.93-9.51-22.04-18.76-33.18-27.98c-14.27-11.8-29.69-21.86-45.77-30.98
		c-1.26-0.74-2.55-1.44-3.81-2.18c-2.08-1.42-3.84-3.6-6.83-2.94c-0.74-0.03-1.02,0.34-0.81,1.05c-0.11,1.21-0.18,2.42-0.29,3.63
		c-0.32,0.16-0.6,0.29-0.92,0.45c0.32,0.16,0.6,0.29,0.92,0.45c0.16,1.58,0.32,3.18,0.47,4.76c-0.05,16.13-0.26,32.26-0.13,48.39
		c0.08,10.33-0.11,20.62-1.76,30.84c-1.97,4.73-3.91,9.48-5.89,14.21c-0.92,0.34-1,1.1-1.02,1.92c-0.74,0.89-1.47,1.79-2.21,2.68
		c-1.55,1.92-3.07,3.84-4.62,5.78c-6.75,7.41-15.45,11.9-24.28,16.16c-1.97,0.26-4.1-0.11-5.73,1.5c-0.74,0.05-1.44,0.11-2.18,0.16
		c-5.04,0.21-9.9,3.73-15.08,0.68l0.05,0.03c-2.05-3.65,1.18-6.65,1.18-10.19c-0.24-68.68-0.26-137.38-0.37-206.06
		c-0.03-9.56-0.1-9.51,9.12-6.62c10.17,3.21,20.81,5.33,30.4,9.75c8.49,3.91,17.23,7.49,25.46,12.03c1.13,0.5,2.26,1,3.39,1.5
		c13.85,7.44,27.69,14.84,41.54,22.28c3.52,2.84,7.46,4.97,11.51,6.96c3.18,2.78,6.78,4.89,10.46,6.86c3.15,2.1,6.31,4.2,9.46,6.31
		c0.68,0.47,1.34,0.95,2.02,1.42c2.02,1.44,4.05,2.92,6.07,4.36c1.37,1.13,2.73,2.29,4.1,3.42c2.21,1.1,3.49,3.57,6.1,4.07
		c12.32,10.33,24.85,20.33,36.47,31.55c28.03,27.01,52.86,56.46,73.83,89.25c11.53,18.02,21.1,37.15,30.19,56.38
		c3.6,7.62,6.36,16.26,9.04,24.62c5.6,17.55,11.38,35.02,14.98,53.12c0.42,2.31,0.84,4.62,1.26,6.94c0.34,1.16,0.68,2.31,1.05,3.47
		c0.03,1.6-1,3.36,0.76,4.7c0.26,8.22,2.57,16.13,3.86,24.17c-0.53,1.76-0.11,3.28,1.1,4.62c1.21,10.01,1.02,20.15,3.31,30.03
		c0.05,12.32,0.13,24.64,0.18,36.97c0,0.76,0,1.55,0,2.31c-0.32,2.52,0.11,5.52-3.65,5.94c-20.97-0.05-41.96-0.16-62.92-0.18
		c-94.08-0.03-188.14,0-282.22,0c-10.19,0-20.39,0.13-30.58,0.18c-8.46-0.45-16.92-0.89-25.41-1.34
		c-5.41-1.08-10.82-2.15-16.21-3.26c-2.68-0.47-5.39-0.95-8.07-1.42c-4.26-1.13-8.49-2.29-12.74-3.42
		c-1.37-1.23-2.94-1.29-4.62-0.95c-3.44-1.42-6.88-2.81-10.33-4.23l-0.42-0.34l-0.55,0.03c-6.2-2.52-12.4-5.04-18.6-7.57
		c-1.29-1.08-2.71-1.92-4.44-2.08c-7.38-4.26-14.77-8.51-22.15-12.77l0.05,0.05c-4.52-3.21-9.3-6.12-13.48-9.75
		c-3.44-3-6.38-3.52-9.88-0.55c-0.79,0.6-1.58,1.18-2.36,1.79c-0.81-0.55-0.84,0.11-1,0.63c-1.21,0.87-2.39,1.76-3.6,2.63
		c-0.79-0.34-1.02,0.21-1.21,0.79c-0.34,0.39-0.71,0.79-1.05,1.18c-4.1,0.92-6.78,4.2-10.33,6.07
		c-9.54,5.07-18.92,10.46-28.37,15.71c-4.44,1.68-8.88,3.36-13.32,5.02c-8.49,2.57-17,5.15-25.48,7.72c-3.18-0.13-6.2,0.66-9.2,1.52
		c-3.34-0.32-6.33,0.81-9.25,2.26c-11.53,1.1-23.07,2.39-34.68,2.29c-2.1-0.05-4.23-0.18-6.33-0.18c-122.35,0-244.7,0-367.08,0
		c-0.47-0.26-0.92-0.53-1.39-0.79c-1.89-4.26,0.47-8.75-0.76-13.06c0-0.76,0-1.55,0-2.31c0.13-8.09,0.26-16.16,0.39-24.25
		c0.92-13.87,1.81-27.74,2.73-41.59c0.08-1.16,0.16-2.29,0.24-3.44c2.05-2.08,0.97-4.57,0.92-6.94c0.11-0.39,0.18-0.76,0.29-1.16
		c1.55-4.49,2.23-9.14,2.26-13.87c2.18-3.55,2.44-7.51,2.36-11.53c1.6-2.05,1.5-4.62,2.08-6.96c1.16-4.62,2.31-9.25,3.47-13.87
		c3.57-12.01,6.91-24.12,11.43-35.81c0.11-1.1,0.21-2.23,0.32-3.34c1.34-1.29,2.34-2.76,2.08-4.76c3.39-5.89,6.31-11.98,8.51-18.42
		c1.18-1.34,1.92-2.89,2.13-4.68c1.84-1.97,2.5-4.47,3.21-6.94c4.97-11.22,11.32-21.75,17.05-32.58
		c5.73-10.82,13.4-20.65,20.68-30.58c13.64-18.63,28.3-36.47,44.58-52.86c4.73-4.76,9.41-9.59,14.11-14.37
		c0.89,0.05,1.81,0.18,2.23-0.92c6.7-6.33,13.43-12.64,20.12-18.97c0.37,0.03,0.92,0.21,1.08,0.05c9.25-9.3,20.41-16.18,30.63-24.25
		c2-1.47,4.65-2.08,5.96-4.47c3.21-0.68,5.31-3.15,7.91-4.81c3.76-2.36,7.44-4.89,11.32-7.04c16.11-8.99,31.76-18.84,48.95-25.77
		c1.92-0.76,3.44-1.63,3.55-3.91c0.71-0.05,1.39-0.11,2.1-0.16c1.73,0.34,3.28,0.18,4.34-1.44c1.71-0.47,3.73-0.03,4.97-1.81
		c1.42,0.13,2.34-0.6,3.13-1.66c3.57-0.5,6.83-1.76,9.59-4.12c6.41-1.94,12.85-3.86,19.26-5.81c5.46-1.66,10.9-3.31,16.37-4.97
		c1.26,0.03,2.5,0.05,3.76,0.05c0.11,1.13,0.21,2.29,0.29,3.42c-0.6,1.68-0.63,3.36-0.05,5.07c0.05,7.54,0.11,15.08,0.13,22.62
		c-0.76,2.86-0.76,5.73,0,8.62c-0.03,57.67-0.05,115.36-0.08,173.03c0,0.76,0.24,1.5,0.34,2.26c-0.16,1.13-0.39,2.26-0.47,3.39
		c-0.5,7.28-0.92,7.59-8.35,5.99c-0.92-0.21-1.92-0.11-2.86-0.26c-12.85-1.94-24.49-7.51-33.23-16.45
		c-12.93-13.22-18.42-29.69-17.45-48.81c1.08-21.28,0.13-42.67,0.08-64c0.21-0.37,0.21-0.74-0.03-1.1c-2-2.89-2-2.89-6.86,0.03
		c-44.27,26.43-84.57,57.56-117.96,97.26c-15.79,18.78-29.64,38.73-41.54,60.14c-17.97,32.32-30.21,66.71-37.54,102.86
		c-2.52,12.37-5.25,24.78-4.76,37.54c0.05,0.74,0.37,1.02,1.08,0.71c7.51-0.05,15-0.05,22.52-0.13
		c102.59-0.92,205.19,1.97,307.78-1.44c13.85-0.47,26.93-3.94,39.49-8.59c13.53-5.02,26.51-11.77,38.23-20.68
		c3.7-2.81,3.44-3.99,1.29-7.28c-6.67-10.17-13.08-20.52-17.97-31.68c-4.47-10.19-9.59-20.1-11.88-31.21
		c-1.47-7.07-4.23-13.9-6.41-20.81c1.26-2.57-0.79-4.62-1.16-6.94c0.08-1.34,0.42-2.73,0.18-3.99c-2.78-14.95-2.57-30.06-2.57-45.14
		c-0.03-71.93-0.03-143.84-0.05-215.78c0-8.28-0.21-16.53-0.37-24.8c-0.03-1.97-0.26-3.68,2.76-3.76c9.46-0.29,18.5,0.95,27.09,5.18
		c8.67,4.28,15.21,10.93,21.36,18.1c1.79,3.05,3.57,6.07,5.36,9.12c0.32,1.16,0.63,2.31,0.92,3.47c3.28,6.54,2.97,13.87,4.6,20.78
		c0.03,1.55,0.05,3.07,0.08,4.62c-0.05,48.55-0.1,97.1-0.13,145.68c0,12.66,0.08,25.33,0.13,37.99c0.03,5.39,0.05,10.77,0.08,16.18
		c-1.42,6.65,0.95,13.08,1.05,19.63c0.34,1.05,0.81,2.08,1,3.15c2.44,13.79,6.46,27.06,12.79,39.57c0.13,0.39,0.24,0.76,0.37,1.16
		c0.79,5.7,4.49,10.06,6.94,15c0.97,1.55,1.94,1.34,2.92,0c2.26-1.73,2.78-4.41,3.65-6.91c0.68-1.16,1.37-2.31,2.05-3.47
		c1.6-1.45,0.66-3.84,1.71-5.23c5.65-7.51,6.88-16.74,9.83-25.22c5.41-15.66,5.6-32.26,5.7-48.55c0.42-63.45,0.37-126.9,0.05-190.34
		C564.03,296.61,568.31,284.55,575.69,273.2z"/>
	<path class="st1" d="M448.69,827.32c-1.73-0.45-3.21,0.21-4.62,1.1c-5.1-0.71-9.98,1.13-15.03,1.23c-2.31-0.03-4.62-0.05-6.94-0.08
		c-13.08,2.23-26.27,2.08-39.49,2.05c-112.5-0.11-225.02-0.08-337.52-0.08c-6.36,0-12.72,0.16-19.07,0.11
		c-5.52-0.05-6.49-1.87-5.18-7.01c5.99-23.3,23.99-34.55,48.21-34.5c107.88,0.21,215.78,0.11,323.65,0.11
		c8.88,0,17.89,0.68,26.64-0.45c8.41-1.08,16.87-2.15,25.27-4.02c13.27-2.94,26.59-5.46,39.44-10.06
		c11.93-4.28,23.49-9.14,34.02-16.55c6.94-4.89,12.98-10.69,19.55-15.92c1.97-1.58,3.23-2.15,5.28-0.08
		c15.63,15.84,34.97,25.48,55.54,33.1c12.79,4.73,25.93,7.72,39.33,10.11c8.8,1.58,17.71,3.36,26.54,3.49
		c37.94,0.5,75.9,0.13,113.84,0.37c80.47,0.53,160.97-1.13,241.47,0.84c21.15,0.53,35.07,16.58,40.38,33
		c1.87,5.81,0.32,7.28-6.15,7.28c-72.25,0.08-144.5,0.55-216.72,0.03c-63.11-0.45-126.27,2.5-189.32-2.1
		c-14.95-1.08-29.71-3.13-44.22-6.83c-3.15-2.02-7.17-0.58-10.35-2.52c-2.15-1.23-4.52-1.84-6.99-2.02
		c-1.44-0.79-2.92-1.39-4.62-1.23c-3.07-1.05-6.17-2.13-9.25-3.18c-0.74-0.18-1.47-0.39-2.21-0.58
		c-8.96-3.78-17.94-7.49-26.85-11.38c-3-1.31-5.52-0.79-7.99,1.05c-2.29,0.95-4.57,1.87-6.88,2.81c-7.7,3.02-15.42,6.07-23.12,9.09
		c-5.39,1.58-10.8,3.13-16.18,4.7c-2.39,0.47-4.83,0.68-6.96,2.02c-1.16,0.13-2.29,0.24-3.44,0.37c-7.33,1.52-14.63,3.05-21.96,4.57
		c-2.1-0.53-3.81,1.02-5.78,1.1C450.21,827.26,449.45,827.29,448.69,827.32z"/>
	<path class="st1" d="M552.65,219.32c-1.5,0.81-2.63,2-3.44,3.49c-1.68,1.55-3.28,3.21-5.07,4.6c-1.63,1.23-2.26,4.47-5.41,2.89
		c-0.45-1.1-1.02-2.08-2.23-2.52c-1-1.16-1.97-2.34-3.05-3.42c-23.12-23.01-46.21-46.06-69.44-68.97c-2.92-2.89-3.55-4.78-0.24-7.91
		c5.25-4.94,10.06-10.4,15.05-15.66c1.18-1.18,2.36-2.36,3.55-3.55c0.37-0.37,0.71-0.71,1.08-1.08c0.76-0.76,1.55-1.55,2.31-2.31
		c16.68-16.63,33.44-33.21,49.97-49.97c1.37-1.39,2.63-1.94,4.26-2.34c6.15,6.02,12.3,11.98,18.44,18.02
		c18.15,17.84,36.26,35.73,54.41,53.57c1.37,1.34,2.89,2.47,4.36,3.7c3.47,3.97,0.11,6.38-2.1,9.04c-3.07,3.07-6.17,6.15-9.25,9.2
		c-6.17,6.17-12.35,12.32-18.52,18.5c-0.76,0.76-1.52,1.52-2.29,2.31c-3.44,2.78-6.59,5.89-9.3,9.38l0.05-0.05
		C567.6,203.47,560.01,211.28,552.65,219.32z"/>
</g>
<text transform="matrix(1 0 0 1 10.0005 951.5449)" class="st0 st2 st3">HISAN</text>
<text transform="matrix(1 0 0 1 378.373 903.8682)" class="st0 st2 st4">HOME FOR ISLAMIC &amp; SENSIBLE </text>
<text transform="matrix(1 0 0 1 378.373 952.4443)" class="st0 st2 st4">ACTIVITIES OF NAHJURRASHAD</text>
</svg>
